<?xml version="1.0" encoding="utf-8" standalone="no"?>
<!DOCTYPE svg PUBLIC "-//W3C//DTD SVG 1.1//EN"
  "http://www.w3.org/Graphics/SVG/1.1/DTD/svg11.dtd">
<svg xmlns:xlink="http://www.w3.org/1999/xlink" width="401.92pt" height="324.8095pt" viewBox="0 0 401.92 324.8095" xmlns="http://www.w3.org/2000/svg" version="1.1">
 <metadata>
  <rdf:RDF xmlns:dc="http://purl.org/dc/elements/1.1/" xmlns:cc="http://creativecommons.org/ns#" xmlns:rdf="http://www.w3.org/1999/02/22-rdf-syntax-ns#">
   <cc:Work>
    <dc:type rdf:resource="http://purl.org/dc/dcmitype/StillImage"/>
    <dc:date>2026-03-27T21:45:51.990041</dc:date>
    <dc:format>image/svg+xml</dc:format>
    <dc:creator>
     <cc:Agent>
      <dc:title>Matplotlib v3.10.8, https://matplotlib.org/</dc:title>
     </cc:Agent>
    </dc:creator>
   </cc:Work>
  </rdf:RDF>
 </metadata>
 <defs>
  <style type="text/css">*{stroke-linejoin: round; stroke-linecap: butt}</style>
 </defs>
 <g id="figure_1">
  <g id="patch_1">
   <path d="M 0 324.8095 
L 401.92 324.8095 
L 401.92 0 
L 0 0 
z
" style="fill: #ffffff"/>
  </g>
  <g id="axes_1">
   <g id="patch_2">
    <path d="M 37.6 288.072 
L 394.72 288.072 
L 394.72 21.96 
L 37.6 21.96 
z
" style="fill: #ffffff"/>
   </g>
   <g id="matplotlib.axis_1">
    <g id="xtick_1">
     <g id="line2d_1">
      <defs>
       <path id="m249e639140" d="M 0 0 
L 0 3.5 
" style="stroke: #000000; stroke-width: 0.8"/>
      </defs>
      <g>
       <use xlink:href="#m249e639140" x="53.832727" y="288.072" style="stroke: #000000; stroke-width: 0.8"/>
      </g>
     </g>
     <g id="text_1">
      <!-- 0 -->
      <g transform="translate(51.332727 302.220437) scale(0.1 -0.1)">
       <defs>
        <path id="SimSun-30" d="M 1600 4225 
Q 1250 4225 1012 3687 
Q 775 3150 775 2250 
Q 775 1300 1012 775 
Q 1250 250 1600 250 
Q 1975 250 2187 775 
Q 2400 1300 2400 2250 
Q 2400 3150 2200 3687 
Q 2000 4225 1600 4225 
z
M 1600 50 
Q 1050 50 675 625 
Q 300 1200 300 2250 
Q 300 3225 662 3825 
Q 1025 4425 1600 4425 
Q 2150 4425 2512 3850 
Q 2875 3275 2875 2250 
Q 2875 1225 2512 637 
Q 2150 50 1600 50 
z
" transform="scale(0.015625)"/>
       </defs>
       <use xlink:href="#SimSun-30"/>
      </g>
     </g>
    </g>
    <g id="xtick_2">
     <g id="line2d_2">
      <g>
       <use xlink:href="#m249e639140" x="133.016763" y="288.072" style="stroke: #000000; stroke-width: 0.8"/>
      </g>
     </g>
     <g id="text_2">
      <!-- 20 -->
      <g transform="translate(128.016763 302.220437) scale(0.1 -0.1)">
       <defs>
        <path id="SimSun-32" d="M 2325 3325 
Q 2325 3775 2125 4012 
Q 1925 4250 1525 4250 
Q 1225 4250 1012 4087 
Q 800 3925 800 3675 
Q 800 3525 900 3425 
Q 975 3325 975 3225 
Q 975 3100 912 3037 
Q 850 2975 725 2975 
Q 575 2975 487 3062 
Q 400 3150 400 3350 
Q 400 3875 775 4150 
Q 1150 4425 1575 4425 
Q 2175 4425 2462 4125 
Q 2750 3825 2750 3375 
Q 2750 3075 2612 2775 
Q 2475 2475 2175 2200 
Q 1450 1500 1062 1062 
Q 675 625 600 475 
L 2075 475 
Q 2300 475 2450 650 
Q 2600 825 2650 1175 
L 2800 1175 
L 2650 100 
L 325 100 
L 325 425 
Q 450 650 737 1000 
Q 1025 1350 1500 1825 
Q 1925 2250 2125 2625 
Q 2325 3000 2325 3325 
z
" transform="scale(0.015625)"/>
       </defs>
       <use xlink:href="#SimSun-32"/>
       <use xlink:href="#SimSun-30" transform="translate(50 0)"/>
      </g>
     </g>
    </g>
    <g id="xtick_3">
     <g id="line2d_3">
      <g>
       <use xlink:href="#m249e639140" x="212.200798" y="288.072" style="stroke: #000000; stroke-width: 0.8"/>
      </g>
     </g>
     <g id="text_3">
      <!-- 40 -->
      <g transform="translate(207.200798 302.220437) scale(0.1 -0.1)">
       <defs>
        <path id="SimSun-34" d="M 2300 575 
Q 2300 400 2400 325 
Q 2500 250 2675 250 
L 2900 250 
L 2900 100 
L 1250 100 
L 1250 250 
L 1525 250 
Q 1725 250 1812 325 
Q 1900 400 1900 575 
L 1900 1400 
L 225 1400 
L 225 1525 
L 2050 4425 
L 2300 4425 
L 2300 1550 
L 2975 1550 
L 2975 1400 
L 2300 1400 
L 2300 575 
z
M 1875 3800 
L 450 1550 
L 1900 1550 
L 1900 3800 
L 1875 3800 
z
" transform="scale(0.015625)"/>
       </defs>
       <use xlink:href="#SimSun-34"/>
       <use xlink:href="#SimSun-30" transform="translate(50 0)"/>
      </g>
     </g>
    </g>
    <g id="xtick_4">
     <g id="line2d_4">
      <g>
       <use xlink:href="#m249e639140" x="291.384834" y="288.072" style="stroke: #000000; stroke-width: 0.8"/>
      </g>
     </g>
     <g id="text_4">
      <!-- 60 -->
      <g transform="translate(286.384834 302.220437) scale(0.1 -0.1)">
       <defs>
        <path id="SimSun-36" d="M 775 1800 
Q 775 1050 1037 637 
Q 1300 225 1675 225 
Q 2050 225 2250 500 
Q 2450 775 2450 1525 
Q 2450 2025 2237 2300 
Q 2025 2575 1725 2575 
Q 1450 2575 1212 2412 
Q 975 2250 775 1800 
z
M 1750 2825 
Q 2350 2825 2612 2425 
Q 2875 2025 2875 1525 
Q 2875 775 2512 412 
Q 2150 50 1675 50 
Q 1000 50 650 562 
Q 300 1075 300 2050 
Q 300 3200 725 3812 
Q 1150 4425 1875 4425 
Q 2225 4425 2437 4225 
Q 2650 4025 2650 3875 
Q 2650 3725 2587 3650 
Q 2525 3575 2375 3575 
Q 2250 3575 2187 3637 
Q 2125 3700 2125 3825 
Q 2125 3875 2150 3925 
Q 2150 3975 2150 4025 
Q 2150 4125 2075 4187 
Q 2000 4250 1800 4250 
Q 1375 4250 1075 3862 
Q 775 3475 775 2175 
Q 925 2500 1187 2662 
Q 1450 2825 1750 2825 
z
" transform="scale(0.015625)"/>
       </defs>
       <use xlink:href="#SimSun-36"/>
       <use xlink:href="#SimSun-30" transform="translate(50 0)"/>
      </g>
     </g>
    </g>
    <g id="xtick_5">
     <g id="line2d_5">
      <g>
       <use xlink:href="#m249e639140" x="370.568869" y="288.072" style="stroke: #000000; stroke-width: 0.8"/>
      </g>
     </g>
     <g id="text_5">
      <!-- 80 -->
      <g transform="translate(365.568869 302.220437) scale(0.1 -0.1)">
       <defs>
        <path id="SimSun-38" d="M 625 1125 
Q 625 725 887 475 
Q 1150 225 1550 225 
Q 2025 225 2237 475 
Q 2450 725 2450 1100 
Q 2450 1425 2150 1725 
Q 1850 2025 1250 2275 
Q 950 2075 787 1775 
Q 625 1475 625 1125 
z
M 2825 1175 
Q 2825 700 2475 375 
Q 2125 50 1550 50 
Q 1025 50 650 375 
Q 275 700 275 1125 
Q 275 1550 487 1850 
Q 700 2150 1100 2375 
Q 750 2550 562 2812 
Q 375 3075 375 3400 
Q 375 3825 700 4125 
Q 1025 4425 1600 4425 
Q 2125 4425 2450 4125 
Q 2775 3825 2775 3400 
Q 2775 3100 2587 2837 
Q 2400 2575 2000 2375 
Q 2425 2125 2625 1825 
Q 2825 1525 2825 1175 
z
M 2425 3375 
Q 2425 3725 2225 3987 
Q 2025 4250 1600 4250 
Q 1125 4250 925 4000 
Q 725 3750 725 3475 
Q 725 3200 1012 2937 
Q 1300 2675 1825 2475 
Q 2125 2625 2275 2850 
Q 2425 3075 2425 3375 
z
" transform="scale(0.015625)"/>
       </defs>
       <use xlink:href="#SimSun-38"/>
       <use xlink:href="#SimSun-30" transform="translate(50 0)"/>
      </g>
     </g>
    </g>
    <g id="text_6">
     <!-- $V_{G_2K}/V$ -->
     <g transform="translate(200.81 314.8095) scale(0.1 -0.1)">
      <defs>
       <path id="DejaVuSans-Oblique-56" d="M 1319 0 
L 500 4666 
L 1119 4666 
L 1797 653 
L 4063 4666 
L 4750 4666 
L 2053 0 
L 1319 0 
z
" transform="scale(0.015625)"/>
       <path id="DejaVuSans-Oblique-47" d="M 3494 697 
L 3738 1919 
L 2700 1919 
L 2797 2438 
L 4453 2438 
L 4050 384 
Q 3634 156 3143 32 
Q 2653 -91 2156 -91 
Q 1278 -91 783 396 
Q 288 884 288 1753 
Q 288 2475 589 3126 
Q 891 3778 1422 4213 
Q 1756 4484 2153 4617 
Q 2550 4750 3034 4750 
Q 3472 4750 3873 4639 
Q 4275 4528 4641 4306 
L 4513 3634 
Q 4231 3928 3853 4083 
Q 3475 4238 3047 4238 
Q 2550 4238 2172 4048 
Q 1794 3859 1497 3463 
Q 1244 3125 1098 2667 
Q 953 2209 953 1734 
Q 953 1081 1287 751 
Q 1622 422 2284 422 
Q 2616 422 2925 492 
Q 3234 563 3494 697 
z
" transform="scale(0.015625)"/>
       <path id="DejaVuSans-32" d="M 1228 531 
L 3431 531 
L 3431 0 
L 469 0 
L 469 531 
Q 828 903 1448 1529 
Q 2069 2156 2228 2338 
Q 2531 2678 2651 2914 
Q 2772 3150 2772 3378 
Q 2772 3750 2511 3984 
Q 2250 4219 1831 4219 
Q 1534 4219 1204 4116 
Q 875 4013 500 3803 
L 500 4441 
Q 881 4594 1212 4672 
Q 1544 4750 1819 4750 
Q 2544 4750 2975 4387 
Q 3406 4025 3406 3419 
Q 3406 3131 3298 2873 
Q 3191 2616 2906 2266 
Q 2828 2175 2409 1742 
Q 1991 1309 1228 531 
z
" transform="scale(0.015625)"/>
       <path id="DejaVuSans-Oblique-4b" d="M 1081 4666 
L 1716 4666 
L 1331 2700 
L 3781 4666 
L 4622 4666 
L 1850 2438 
L 3878 0 
L 3109 0 
L 1247 2272 
L 806 0 
L 172 0 
L 1081 4666 
z
" transform="scale(0.015625)"/>
       <path id="DejaVuSans-2f" d="M 1625 4666 
L 2156 4666 
L 531 -594 
L 0 -594 
L 1625 4666 
z
" transform="scale(0.015625)"/>
      </defs>
      <use xlink:href="#DejaVuSans-Oblique-56" transform="translate(0 0.09375)"/>
      <use xlink:href="#DejaVuSans-Oblique-47" transform="translate(68.408203 -16.3125) scale(0.7)"/>
      <use xlink:href="#DejaVuSans-32" transform="translate(122.651367 -27.796875) scale(0.49)"/>
      <use xlink:href="#DejaVuSans-Oblique-4b" transform="translate(155.740723 -16.3125) scale(0.7)"/>
      <use xlink:href="#DejaVuSans-2f" transform="translate(204.378418 0.09375)"/>
      <use xlink:href="#DejaVuSans-Oblique-56" transform="translate(238.069824 0.09375)"/>
     </g>
    </g>
   </g>
   <g id="matplotlib.axis_2">
    <g id="ytick_1">
     <g id="line2d_6">
      <defs>
       <path id="mcde2915a94" d="M 0 0 
L -3.5 0 
" style="stroke: #000000; stroke-width: 0.8"/>
      </defs>
      <g>
       <use xlink:href="#mcde2915a94" x="37.6" y="275.976" style="stroke: #000000; stroke-width: 0.8"/>
      </g>
     </g>
     <g id="text_7">
      <!-- 0 -->
      <g transform="translate(25.6 279.550219) scale(0.1 -0.1)">
       <use xlink:href="#SimSun-30"/>
      </g>
     </g>
    </g>
    <g id="ytick_2">
     <g id="line2d_7">
      <g>
       <use xlink:href="#mcde2915a94" x="37.6" y="229.273297" style="stroke: #000000; stroke-width: 0.8"/>
      </g>
     </g>
     <g id="text_8">
      <!-- 2 -->
      <g transform="translate(25.6 232.847516) scale(0.1 -0.1)">
       <use xlink:href="#SimSun-32"/>
      </g>
     </g>
    </g>
    <g id="ytick_3">
     <g id="line2d_8">
      <g>
       <use xlink:href="#mcde2915a94" x="37.6" y="182.570595" style="stroke: #000000; stroke-width: 0.8"/>
      </g>
     </g>
     <g id="text_9">
      <!-- 4 -->
      <g transform="translate(25.6 186.144813) scale(0.1 -0.1)">
       <use xlink:href="#SimSun-34"/>
      </g>
     </g>
    </g>
    <g id="ytick_4">
     <g id="line2d_9">
      <g>
       <use xlink:href="#mcde2915a94" x="37.6" y="135.867892" style="stroke: #000000; stroke-width: 0.8"/>
      </g>
     </g>
     <g id="text_10">
      <!-- 6 -->
      <g transform="translate(25.6 139.442111) scale(0.1 -0.1)">
       <use xlink:href="#SimSun-36"/>
      </g>
     </g>
    </g>
    <g id="ytick_5">
     <g id="line2d_10">
      <g>
       <use xlink:href="#mcde2915a94" x="37.6" y="89.165189" style="stroke: #000000; stroke-width: 0.8"/>
      </g>
     </g>
     <g id="text_11">
      <!-- 8 -->
      <g transform="translate(25.6 92.739408) scale(0.1 -0.1)">
       <use xlink:href="#SimSun-38"/>
      </g>
     </g>
    </g>
    <g id="ytick_6">
     <g id="line2d_11">
      <g>
       <use xlink:href="#mcde2915a94" x="37.6" y="42.462486" style="stroke: #000000; stroke-width: 0.8"/>
      </g>
     </g>
     <g id="text_12">
      <!-- 10 -->
      <g transform="translate(20.6 46.036705) scale(0.1 -0.1)">
       <defs>
        <path id="SimSun-31" d="M 1825 4450 
L 1825 650 
Q 1825 450 1950 350 
Q 2075 250 2300 250 
L 2550 250 
L 2550 100 
L 725 100 
L 725 250 
L 950 250 
Q 1200 250 1312 350 
Q 1425 450 1425 650 
L 1425 3675 
Q 1425 3775 1362 3837 
Q 1300 3900 1175 3900 
L 725 3900 
L 725 4050 
L 950 4050 
Q 1250 4050 1437 4150 
Q 1625 4250 1725 4450 
L 1825 4450 
z
" transform="scale(0.015625)"/>
       </defs>
       <use xlink:href="#SimSun-31"/>
       <use xlink:href="#SimSun-30" transform="translate(50 0)"/>
      </g>
     </g>
    </g>
    <g id="text_13">
     <!-- $I_A/\mu A$ -->
     <g transform="translate(14.5 167.316) rotate(-90) scale(0.1 -0.1)">
      <defs>
       <path id="DejaVuSans-Oblique-49" d="M 1081 4666 
L 1716 4666 
L 806 0 
L 172 0 
L 1081 4666 
z
" transform="scale(0.015625)"/>
       <path id="DejaVuSans-Oblique-41" d="M 2356 4666 
L 3072 4666 
L 3938 0 
L 3278 0 
L 3084 1197 
L 984 1197 
L 325 0 
L -341 0 
L 2356 4666 
z
M 2584 4044 
L 1275 1722 
L 2988 1722 
L 2584 4044 
z
" transform="scale(0.015625)"/>
       <path id="DejaVuSans-Oblique-3bc" d="M -84 -1331 
L 856 3500 
L 1434 3500 
L 1009 1322 
Q 997 1256 987 1175 
Q 978 1094 978 1013 
Q 978 722 1161 565 
Q 1344 409 1684 409 
Q 2147 409 2431 671 
Q 2716 934 2816 1459 
L 3213 3500 
L 3788 3500 
L 3266 809 
Q 3253 750 3248 706 
Q 3244 663 3244 628 
Q 3244 531 3283 486 
Q 3322 441 3406 441 
Q 3438 441 3492 456 
Q 3547 472 3647 513 
L 3559 50 
Q 3422 -19 3297 -55 
Q 3172 -91 3053 -91 
Q 2847 -91 2730 40 
Q 2613 172 2613 403 
Q 2438 153 2195 31 
Q 1953 -91 1625 -91 
Q 1334 -91 1117 43 
Q 900 178 831 397 
L 494 -1331 
L -84 -1331 
z
" transform="scale(0.015625)"/>
      </defs>
      <use xlink:href="#DejaVuSans-Oblique-49" transform="translate(0 0.09375)"/>
      <use xlink:href="#DejaVuSans-Oblique-41" transform="translate(29.492188 -16.3125) scale(0.7)"/>
      <use xlink:href="#DejaVuSans-2f" transform="translate(80.112305 0.09375)"/>
      <use xlink:href="#DejaVuSans-Oblique-3bc" transform="translate(113.803711 0.09375)"/>
      <use xlink:href="#DejaVuSans-Oblique-41" transform="translate(177.426758 0.09375)"/>
     </g>
    </g>
   </g>
   <g id="line2d_12">
    <path d="M 53.832727 275.976 
L 93.424745 275.905946 
L 95.404346 275.789189 
L 97.383947 275.555676 
L 101.343149 274.715027 
L 105.30235 273.780973 
L 109.261552 272.940324 
L 111.241153 272.543351 
L 113.220754 272.543351 
L 117.179956 271.959568 
L 121.139157 271.375784 
L 123.118758 271.212324 
L 125.098359 271.329081 
L 131.037162 270.721946 
L 133.016763 270.721946 
L 136.975965 270.418378 
L 144.894368 270.138162 
L 150.833171 270.068108 
L 152.812772 269.928 
L 154.792373 269.484324 
L 156.771973 269.274162 
L 158.751574 268.830486 
L 162.710776 267.406054 
L 166.669978 265.444541 
L 168.649579 264.370378 
L 170.62918 263.156108 
L 180.527184 257.878703 
L 182.506785 257.294919 
L 184.486386 256.944649 
L 186.465987 256.407568 
L 188.445588 255.006486 
L 190.425188 255.333405 
L 192.404789 255.940541 
L 194.38439 256.337514 
L 196.363991 257.131459 
L 198.343592 256.641081 
L 200.323193 257.061405 
L 202.302794 256.430919 
L 204.282395 254.02573 
L 206.261996 250.990054 
L 210.221197 243.050595 
L 212.200798 238.170162 
L 214.180399 233.99027 
L 216.16 230.417514 
L 220.119202 223.949189 
L 222.098803 221.333838 
L 224.078404 219.372324 
L 226.058004 218.181405 
L 228.037605 217.73773 
L 230.017206 217.807784 
L 231.996807 219.162162 
L 233.976408 220.936865 
L 235.956009 224.626378 
L 237.93561 228.993081 
L 239.915211 234.083676 
L 241.894812 238.31027 
L 243.874412 240.785514 
L 245.854013 239.17427 
L 247.833614 235.111135 
L 249.813215 229.086486 
L 251.792816 221.964324 
L 255.752018 206.832649 
L 261.69082 186.330162 
L 263.670421 180.842595 
L 265.650022 176.10227 
L 267.629623 172.506162 
L 269.609224 170.334486 
L 271.588825 169.587243 
L 273.568426 170.311135 
L 275.548027 173.019892 
L 277.527627 177.48 
L 279.507228 183.271135 
L 281.486829 191.607568 
L 287.425632 219.442378 
L 289.405233 223.809081 
L 291.384834 222.454703 
L 293.364435 215.939676 
L 295.344035 206.295568 
L 297.323636 195.834162 
L 305.24204 150.672649 
L 307.221641 141.448865 
L 309.201242 132.995676 
L 311.180843 125.710054 
L 313.160443 120.409297 
L 315.140044 117.093405 
L 317.119645 115.855784 
L 319.099246 116.64973 
L 321.078847 120.362595 
L 323.058448 126.410595 
L 325.038049 135.027243 
L 327.01765 146.02573 
L 328.997251 158.705514 
L 330.976851 172.763027 
L 332.956452 185.396108 
L 334.936053 193.685838 
L 336.915654 195.040216 
L 338.895255 190.113081 
L 340.874856 180.865946 
L 342.854457 169.493838 
L 344.834058 156.370378 
L 346.813659 140.631568 
L 352.752461 100.724108 
L 354.732062 88.488 
L 356.711663 78.260108 
L 358.691264 69.83027 
L 360.670865 64.272649 
L 362.650466 60.559784 
L 364.630067 59.695784 
L 366.609667 61.750703 
L 368.589268 66.701189 
L 370.568869 74.360432 
L 372.54847 84.424865 
L 376.507672 113.987676 
L 378.487273 130.356973 
L 378.487273 130.356973 
" clip-path="url(#pc28adda715)" style="fill: none; stroke: #1f77b4; stroke-width: 1.5; stroke-linecap: square"/>
   </g>
   <g id="line2d_13">
    <path d="M 53.832727 275.976 
L 93.424745 275.952649 
L 97.383947 275.602378 
L 109.261552 273.687568 
L 111.241153 273.454054 
L 113.220754 273.617514 
L 115.200355 273.360649 
L 117.179956 273.243892 
L 123.118758 272.613405 
L 129.057561 272.193081 
L 136.975965 271.889514 
L 144.894368 271.982919 
L 152.812772 272.076324 
L 154.792373 272.00627 
L 160.731175 271.095568 
L 164.690377 270.231568 
L 168.649579 269.110703 
L 170.62918 267.592865 
L 176.567982 266.004973 
L 178.547583 265.608 
L 180.527184 264.487135 
L 182.506785 264.23027 
L 184.486386 264.136865 
L 186.465987 264.160216 
L 190.425188 264.673946 
L 192.404789 265.047568 
L 196.363991 266.051676 
L 200.323193 266.612108 
L 202.302794 266.588757 
L 204.282395 265.864865 
L 206.261996 264.697297 
L 208.241596 261.965189 
L 210.221197 259.886919 
L 212.200798 257.528432 
L 214.180399 255.450162 
L 216.16 253.16173 
L 218.139601 251.176865 
L 220.119202 249.518919 
L 222.098803 248.024432 
L 224.078404 246.693405 
L 226.058004 243.634378 
L 228.037605 243.564324 
L 230.017206 244.031351 
L 231.996807 244.895351 
L 233.976408 246.459892 
L 235.956009 248.187892 
L 237.93561 250.546378 
L 239.915211 253.348541 
L 241.894812 255.660324 
L 243.874412 256.851243 
L 245.854013 256.944649 
L 247.833614 255.426811 
L 249.813215 252.204324 
L 251.792816 247.81427 
L 257.731619 233.850162 
L 261.69082 225.700541 
L 265.650022 219.395676 
L 267.629623 217.364108 
L 269.609224 215.986378 
L 271.588825 215.566054 
L 273.568426 216.00973 
L 275.548027 217.364108 
L 277.527627 219.862703 
L 279.507228 223.458811 
L 283.46643 233.196324 
L 285.446031 238.777297 
L 287.425632 243.611027 
L 289.405233 246.179676 
L 291.384834 245.665946 
L 293.364435 242.326703 
L 295.344035 236.792432 
L 297.323636 230.324108 
L 305.24204 203.119784 
L 307.221641 197.585514 
L 309.201242 192.705081 
L 311.180843 188.758703 
L 313.160443 186.026595 
L 315.140044 184.135135 
L 317.119645 183.551351 
L 319.099246 184.088432 
L 321.078847 186.166703 
L 323.058448 189.482595 
L 325.038049 194.876757 
L 327.01765 201.345081 
L 328.997251 208.817514 
L 330.976851 217.013838 
L 332.956452 224.416216 
L 334.936053 229.343351 
L 336.915654 230.861189 
L 338.895255 227.755459 
L 340.874856 222.361297 
L 344.834058 206.832649 
L 348.793259 189.739459 
L 350.77286 181.356324 
L 352.752461 173.837189 
L 354.732062 166.878486 
L 356.711663 161.040649 
L 358.691264 156.160216 
L 360.670865 152.867676 
L 362.650466 150.952865 
L 364.630067 150.719351 
L 366.609667 152.050378 
L 368.589268 154.992649 
L 370.568869 160.129946 
L 372.54847 166.107892 
L 374.528071 174.561081 
L 378.487273 193.055351 
L 378.487273 193.055351 
" clip-path="url(#pc28adda715)" style="fill: none; stroke: #ff7f0e; stroke-width: 1.5; stroke-linecap: square"/>
   </g>
   <g id="line2d_14">
    <path d="M 53.832727 275.976 
L 93.424745 275.929297 
L 95.404346 275.719135 
L 97.383947 275.368865 
L 101.343149 274.458162 
L 103.322749 274.668324 
L 107.281951 273.547459 
L 109.261552 274.878486 
L 115.200355 273.73427 
L 121.139157 272.566703 
L 131.037162 271.14227 
L 133.016763 271.118919 
L 138.955565 270.535135 
L 142.914767 270.301622 
L 148.85357 270.138162 
L 152.812772 270.114811 
L 154.792373 269.57773 
L 156.771973 269.297514 
L 158.751574 268.900541 
L 160.731175 268.340108 
L 162.710776 265.794811 
L 164.690377 264.884108 
L 166.669978 263.086054 
L 174.588381 258.439135 
L 178.547583 256.430919 
L 182.506785 254.72627 
L 184.486386 252.834811 
L 186.465987 252.718054 
L 188.445588 252.741405 
L 192.404789 253.652108 
L 194.38439 254.702919 
L 196.363991 255.263351 
L 198.343592 256.384216 
L 200.323193 256.524324 
L 202.302794 255.940541 
L 204.282395 253.745514 
L 206.261996 250.172757 
L 208.241596 246.366486 
L 210.221197 242.046486 
L 212.200798 236.909189 
L 216.16 228.129081 
L 218.139601 222.945081 
L 220.119202 219.582486 
L 222.098803 216.967135 
L 224.078404 214.772108 
L 226.058004 212.366919 
L 228.037605 212.086703 
L 230.017206 212.647135 
L 231.996807 214.398486 
L 233.976408 217.037189 
L 237.93561 225.233514 
L 239.915211 230.744432 
L 241.894812 234.994378 
L 243.874412 238.286919 
L 245.854013 237.703135 
L 247.833614 233.616649 
L 249.813215 227.148324 
L 251.792816 218.998703 
L 257.731619 192.68173 
L 259.71122 184.695568 
L 261.69082 177.269838 
L 263.670421 171.175135 
L 265.650022 165.967784 
L 267.629623 162.231568 
L 269.609224 159.966486 
L 271.588825 159.009081 
L 273.568426 159.896432 
L 275.548027 162.371676 
L 277.527627 167.041946 
L 279.507228 173.907243 
L 283.46643 192.985297 
L 285.446031 204.450811 
L 287.425632 213.557838 
L 289.405233 217.620973 
L 291.384834 215.239135 
L 293.364435 208.350486 
L 295.344035 197.982486 
L 301.282838 159.476108 
L 307.221641 125.219676 
L 309.201242 116.416216 
L 311.180843 108.640216 
L 313.160443 102.755676 
L 315.140044 99.276324 
L 317.119645 98.178811 
L 319.099246 99.36973 
L 321.078847 103.68973 
L 323.058448 110.274811 
L 325.038049 120.269189 
L 327.01765 132.108324 
L 328.997251 147.356757 
L 330.976851 161.717838 
L 332.956452 177.12973 
L 334.936053 185.512865 
L 336.915654 186.400216 
L 338.895255 180.842595 
L 340.874856 170.544649 
L 344.834058 141.962595 
L 352.752461 80.081514 
L 356.711663 55.749405 
L 358.691264 47.483027 
L 362.650466 34.056 
L 364.630067 35.690595 
L 366.609667 39.660324 
L 368.589268 46.66573 
L 370.568869 56.706811 
L 372.54847 70.017081 
L 374.528071 86.129514 
L 378.487273 121.156541 
L 378.487273 121.156541 
" clip-path="url(#pc28adda715)" style="fill: none; stroke: #2ca02c; stroke-width: 1.5; stroke-linecap: square"/>
   </g>
   <g id="line2d_15">
    <path d="M 53.832727 275.976 
L 103.322749 275.905946 
L 107.281951 275.579027 
L 111.241153 274.948541 
L 115.200355 274.154595 
L 123.118758 272.449946 
L 127.07796 271.749405 
L 129.057561 272.823568 
L 136.975965 271.679351 
L 140.935166 271.30573 
L 146.873969 271.048865 
L 150.833171 271.095568 
L 156.771973 271.282378 
L 158.751574 271.212324 
L 160.731175 270.978811 
L 162.710776 270.605189 
L 164.690377 269.998054 
L 168.649579 268.386811 
L 176.567982 264.533838 
L 180.527184 262.969297 
L 182.506785 262.432216 
L 186.465987 261.80173 
L 188.445588 261.825081 
L 190.425188 262.035243 
L 192.404789 262.478919 
L 194.38439 263.062703 
L 202.302794 266.331892 
L 204.282395 266.612108 
L 206.261996 266.285189 
L 208.241596 265.070919 
L 210.221197 263.062703 
L 212.200798 260.424 
L 216.16 254.376 
L 220.119202 247.697514 
L 222.098803 244.918703 
L 224.078404 242.420108 
L 226.058004 240.481946 
L 228.037605 239.17427 
L 230.017206 238.450378 
L 231.996807 238.543784 
L 233.976408 239.291027 
L 235.956009 240.715459 
L 237.93561 242.910486 
L 239.915211 245.736 
L 241.894812 248.795027 
L 243.874412 252.554595 
L 245.854013 255.987243 
L 247.833614 259.022919 
L 249.813215 260.213838 
L 251.792816 258.906162 
L 253.772417 254.772973 
L 255.752018 248.795027 
L 257.731619 241.159135 
L 261.69082 225.093405 
L 265.650022 210.031784 
L 267.629623 203.703568 
L 269.609224 199.009946 
L 271.588825 195.203676 
L 273.568426 193.125405 
L 275.548027 192.68173 
L 277.527627 193.966054 
L 279.507228 196.814919 
L 281.486829 201.134919 
L 283.46643 207.36973 
L 285.446031 214.935568 
L 287.425632 223.225297 
L 289.405233 232.285622 
L 291.384834 240.155027 
L 293.364435 247.137081 
L 295.344035 249.635676 
L 297.323636 247.090378 
L 299.303237 239.711351 
L 301.282838 228.80627 
L 309.201242 174.257514 
L 311.180843 162.815351 
L 313.160443 152.797622 
L 315.140044 144.99827 
L 317.119645 139.230486 
L 319.099246 135.681081 
L 321.078847 134.653622 
L 323.058448 136.475027 
L 325.038049 141.121946 
L 327.01765 147.893838 
L 328.997251 157.537946 
L 330.976851 168.746595 
L 336.915654 210.171892 
L 338.895255 222.75827 
L 340.874856 229.296649 
L 342.854457 229.506811 
L 344.834058 222.501405 
L 346.813659 210.382054 
L 348.793259 195.670703 
L 350.77286 179.348108 
L 352.752461 161.274162 
L 356.711663 127.438054 
L 358.691264 112.142919 
L 360.670865 100.000216 
L 362.650466 89.982486 
L 364.630067 82.836973 
L 366.609667 78.260108 
L 368.589268 76.975784 
L 370.568869 79.217514 
L 372.54847 84.588324 
L 374.528071 93.882162 
L 376.507672 105.908108 
L 378.487273 119.988973 
L 378.487273 119.988973 
" clip-path="url(#pc28adda715)" style="fill: none; stroke: #d62728; stroke-width: 1.5; stroke-linecap: square"/>
   </g>
   <g id="patch_3">
    <path d="M 37.6 288.072 
L 37.6 21.96 
" style="fill: none; stroke: #000000; stroke-width: 0.8; stroke-linejoin: miter; stroke-linecap: square"/>
   </g>
   <g id="patch_4">
    <path d="M 394.72 288.072 
L 394.72 21.96 
" style="fill: none; stroke: #000000; stroke-width: 0.8; stroke-linejoin: miter; stroke-linecap: square"/>
   </g>
   <g id="patch_5">
    <path d="M 37.6 288.072 
L 394.72 288.072 
" style="fill: none; stroke: #000000; stroke-width: 0.8; stroke-linejoin: miter; stroke-linecap: square"/>
   </g>
   <g id="patch_6">
    <path d="M 37.6 21.96 
L 394.72 21.96 
" style="fill: none; stroke: #000000; stroke-width: 0.8; stroke-linejoin: miter; stroke-linecap: square"/>
   </g>
   <g id="text_14">
    <!-- $I_A-V_{G_2K}$ -->
    <g transform="translate(191.68 15.96) scale(0.12 -0.12)">
     <defs>
      <path id="DejaVuSans-2212" d="M 678 2272 
L 4684 2272 
L 4684 1741 
L 678 1741 
L 678 2272 
z
" transform="scale(0.015625)"/>
     </defs>
     <use xlink:href="#DejaVuSans-Oblique-49" transform="translate(0 0.09375)"/>
     <use xlink:href="#DejaVuSans-Oblique-41" transform="translate(29.492188 -16.3125) scale(0.7)"/>
     <use xlink:href="#DejaVuSans-2212" transform="translate(99.594727 0.09375)"/>
     <use xlink:href="#DejaVuSans-Oblique-56" transform="translate(202.866211 0.09375)"/>
     <use xlink:href="#DejaVuSans-Oblique-47" transform="translate(271.274414 -16.3125) scale(0.7)"/>
     <use xlink:href="#DejaVuSans-32" transform="translate(325.517578 -27.796875) scale(0.49)"/>
     <use xlink:href="#DejaVuSans-Oblique-4b" transform="translate(358.606934 -16.3125) scale(0.7)"/>
    </g>
   </g>
   <g id="legend_1">
    <g id="patch_7">
     <path d="M 44.6 86.874062 
L 341.6 86.874062 
Q 343.6 86.874062 343.6 84.874062 
L 343.6 28.96 
Q 343.6 26.96 341.6 26.96 
L 44.6 26.96 
Q 42.6 26.96 42.6 28.96 
L 42.6 84.874062 
Q 42.6 86.874062 44.6 86.874062 
z
" style="fill: #ffffff; opacity: 0.8; stroke: #cccccc; stroke-linejoin: miter"/>
    </g>
    <g id="line2d_16">
     <path d="M 46.6 35.42875 
L 56.6 35.42875 
L 66.6 35.42875 
" style="fill: none; stroke: #1f77b4; stroke-width: 1.5; stroke-linecap: square"/>
    </g>
    <g id="text_15">
     <!-- 标准，第一激发电位11.800V，相对误差-2.16% -->
     <g transform="translate(74.6 38.92875) scale(0.1 -0.1)">
      <defs>
       <path id="SimSun-6807" d="M 4775 2225 
Q 5725 1275 5825 1050 
Q 5925 825 5925 700 
Q 5925 525 5825 375 
Q 5725 225 5700 225 
Q 5575 225 5475 650 
Q 5300 1225 4700 2175 
L 4775 2225 
z
M 2750 4600 
L 4975 4600 
L 5275 4900 
L 5725 4450 
L 3175 4450 
L 2950 4400 
L 2750 4600 
z
M 3100 75 
Q 3775 -50 3900 -25 
Q 4025 0 4025 175 
L 4025 2950 
L 2800 2950 
L 2575 2900 
L 2375 3100 
L 5350 3100 
L 5675 3425 
L 6150 2950 
L 4400 2950 
L 4400 -25 
Q 4375 -425 3850 -600 
Q 3850 -300 3100 -50 
L 3100 75 
z
M 3125 2275 
L 3675 1950 
L 3425 1825 
Q 2800 700 2100 25 
L 2025 100 
Q 2725 1025 3125 2275 
z
M 1675 2725 
Q 1675 25 1700 -475 
L 1300 -625 
Q 1325 450 1325 2325 
Q 950 1450 350 700 
L 275 800 
Q 975 1925 1325 3475 
L 700 3475 
L 475 3425 
L 275 3625 
L 1325 3625 
Q 1325 4575 1300 5275 
L 1900 4975 
L 1675 4800 
L 1675 3625 
L 2000 3625 
L 2275 3900 
L 2700 3475 
L 1675 3475 
L 1675 2850 
Q 2150 2600 2312 2425 
Q 2475 2250 2475 2125 
Q 2475 2050 2400 1912 
Q 2325 1775 2275 1775 
Q 2200 1775 2100 2075 
Q 1925 2475 1675 2725 
z
" transform="scale(0.015625)"/>
       <path id="SimSun-51c6" d="M 2575 -600 
Q 2600 300 2600 550 
L 2600 3375 
Q 2200 2725 1675 2200 
L 1600 2250 
Q 2100 2950 2462 3812 
Q 2825 4675 2925 5175 
L 3450 4850 
L 3250 4725 
Q 3025 4275 2875 3950 
L 5175 3950 
L 5525 4300 
L 6025 3800 
L 4450 3800 
L 4450 2775 
L 5000 2775 
L 5325 3100 
L 5800 2625 
L 4450 2625 
L 4450 1450 
L 5100 1450 
L 5425 1775 
L 5900 1300 
L 4450 1300 
L 4450 100 
L 5250 100 
L 5600 450 
L 6100 -50 
L 2950 -50 
L 2950 -425 
L 2575 -600 
z
M 4100 3800 
L 2950 3800 
L 2950 2775 
L 4100 2775 
L 4100 3800 
z
M 2950 2625 
L 2950 1450 
L 4100 1450 
L 4100 2625 
L 2950 2625 
z
M 2950 1300 
L 2950 100 
L 4100 100 
L 4100 1300 
L 2950 1300 
z
M 3875 5150 
L 3950 5200 
Q 4675 4725 4650 4500 
Q 4625 4275 4525 4187 
Q 4425 4100 4375 4100 
Q 4275 4100 4250 4350 
Q 4175 4675 3875 5150 
z
M 500 4875 
Q 1350 4375 1337 4137 
Q 1325 3900 1225 3787 
Q 1125 3675 1075 3675 
Q 1000 3675 925 3925 
Q 825 4275 450 4825 
L 500 4875 
z
M 300 1825 
Q 625 1825 862 1887 
Q 1100 1950 2100 4500 
L 2200 4475 
Q 1750 3150 1500 2450 
Q 1225 1750 1200 1137 
Q 1175 525 1200 175 
Q 1200 -200 1012 -137 
Q 825 -75 750 37 
Q 675 150 675 300 
Q 675 450 700 550 
Q 775 850 825 1100 
Q 875 1350 787 1500 
Q 700 1650 300 1725 
L 300 1825 
z
" transform="scale(0.015625)"/>
       <path id="SimSun-ff0c" d="M 1137 150 
Q 1275 325 1375 650 
Q 1150 650 1050 725 
Q 950 800 912 925 
Q 875 1050 900 1162 
Q 925 1275 1075 1387 
Q 1225 1500 1450 1450 
Q 1675 1400 1725 1262 
Q 1775 1125 1775 1000 
Q 1775 850 1700 612 
Q 1625 375 1362 87 
Q 1100 -200 937 -225 
Q 775 -250 775 -225 
Q 775 -200 850 -150 
Q 1000 -25 1137 150 
z
" transform="scale(0.015625)"/>
       <path id="SimSun-7b2c" d="M 1950 4275 
Q 2350 4075 2412 3937 
Q 2475 3800 2475 3750 
Q 2475 3625 2375 3537 
Q 2275 3450 2225 3450 
Q 2150 3450 2150 3525 
Q 2125 3675 2050 3862 
Q 1975 4050 1800 4275 
L 1500 4275 
Q 1300 4075 1062 3850 
Q 825 3625 475 3400 
L 425 3500 
Q 775 3825 1100 4287 
Q 1425 4750 1575 5225 
L 2075 4900 
Q 1925 4825 1600 4425 
L 2675 4425 
L 2975 4725 
L 3400 4275 
L 1950 4275 
z
M 3950 5200 
L 4450 4875 
Q 4275 4825 3975 4425 
L 5250 4425 
L 5550 4725 
L 5975 4275 
L 4375 4275 
Q 4700 4100 4787 3987 
Q 4875 3875 4875 3800 
Q 4875 3675 4775 3562 
Q 4675 3450 4650 3450 
Q 4600 3450 4550 3587 
Q 4500 3725 4450 3875 
Q 4400 4025 4225 4275 
L 3875 4275 
Q 3675 4050 3525 3887 
Q 3375 3725 3025 3450 
L 2950 3525 
Q 3425 4050 3625 4450 
Q 3825 4850 3950 5200 
z
M 1125 1550 
Q 1275 2000 1400 2650 
L 1775 2400 
L 3125 2400 
L 3125 3150 
L 1750 3150 
Q 1550 3150 1275 3075 
L 1050 3300 
L 4775 3300 
L 5025 3550 
L 5375 3200 
L 5175 3075 
Q 5175 2350 5200 2125 
L 4850 1975 
L 4850 2250 
L 3450 2250 
L 3450 1475 
L 5275 1475 
L 5525 1725 
L 5875 1375 
L 5650 1225 
Q 5550 600 5500 387 
Q 5450 175 5362 62 
Q 5275 -50 5150 -112 
Q 5025 -175 4800 -225 
Q 4800 100 4150 375 
L 4150 475 
Q 4800 300 4937 312 
Q 5075 325 5137 462 
Q 5200 600 5300 1325 
L 3450 1325 
L 3450 100 
Q 3450 -200 3475 -525 
L 3100 -650 
Q 3125 -175 3125 500 
L 3125 1300 
Q 2600 600 1875 175 
Q 1150 -250 275 -525 
L 250 -400 
Q 925 -150 1587 275 
Q 2250 700 2700 1325 
L 1450 1325 
L 1275 1100 
L 900 1400 
L 1125 1550 
z
M 3450 3150 
L 3450 2400 
L 4850 2400 
L 4850 3150 
L 3450 3150 
z
M 1700 2250 
Q 1600 1975 1475 1475 
L 3125 1475 
L 3125 2250 
L 1700 2250 
z
" transform="scale(0.015625)"/>
       <path id="SimSun-4e00" d="M 350 2650 
L 5000 2650 
L 5500 3050 
L 6050 2500 
L 1250 2500 
Q 850 2500 575 2425 
L 350 2650 
z
" transform="scale(0.015625)"/>
       <path id="SimSun-6fc0" d="M 2375 4225 
L 2375 3650 
L 3425 3650 
L 3425 4225 
L 2375 4225 
z
M 2375 3500 
L 2375 2900 
L 3425 2900 
L 3425 3500 
L 2375 3500 
z
M 3750 4150 
Q 3750 3100 3775 2725 
L 3425 2550 
L 3425 2750 
L 2825 2750 
Q 3125 2575 3162 2487 
Q 3200 2400 3200 2350 
Q 3200 2250 3100 2125 
L 3650 2125 
L 3900 2375 
L 4275 1975 
L 2675 1975 
Q 2650 1700 2625 1500 
L 3400 1500 
L 3600 1700 
L 3900 1400 
L 3725 1275 
Q 3675 350 3550 162 
Q 3425 -25 3075 -175 
Q 3000 150 2525 275 
L 2525 375 
Q 3100 275 3200 312 
Q 3300 350 3337 550 
Q 3375 750 3400 1350 
L 2600 1350 
Q 2375 50 1350 -575 
L 1300 -500 
Q 2275 350 2350 1975 
L 2325 1975 
Q 2000 1975 1725 1900 
L 1500 2125 
L 2925 2125 
Q 2900 2450 2700 2750 
L 2375 2750 
L 2375 2575 
L 2025 2475 
Q 2050 3000 2050 3537 
Q 2050 4075 2025 4575 
L 2375 4375 
L 2575 4375 
Q 2750 4950 2775 5250 
L 3225 5000 
L 3050 4900 
Q 2850 4600 2700 4375 
L 3400 4375 
L 3625 4600 
L 3950 4275 
L 3750 4150 
z
M 4375 3350 
Q 4500 2025 4825 1325 
Q 5150 2100 5275 3350 
L 4375 3350 
z
M 4600 5225 
L 5125 4975 
L 4950 4825 
Q 4725 4200 4425 3500 
L 5525 3500 
L 5775 3750 
L 6150 3375 
L 5600 3375 
Q 5450 1850 5000 975 
Q 5400 300 6150 -75 
L 6150 -150 
Q 5800 -150 5700 -350 
Q 5250 75 4850 700 
Q 4200 -150 3000 -600 
L 2975 -500 
Q 4000 0 4675 975 
Q 4325 1800 4275 3200 
Q 4200 3025 3850 2550 
L 3775 2600 
Q 4200 3375 4400 4150 
Q 4600 4925 4600 5225 
z
M 1775 3900 
Q 1325 1500 1275 1200 
Q 1200 875 1212 425 
Q 1225 -25 1250 -200 
Q 1250 -300 1125 -300 
Q 1025 -300 887 -250 
Q 750 -200 750 -25 
Q 750 100 825 350 
Q 875 550 875 725 
Q 875 925 762 1025 
Q 650 1125 275 1225 
L 275 1325 
Q 725 1275 825 1287 
Q 925 1300 1037 1512 
Q 1150 1725 1675 3925 
L 1775 3900 
z
M 275 3750 
Q 1025 3325 1025 3087 
Q 1025 2850 950 2775 
L 850 2700 
Q 750 2700 675 2975 
Q 550 3300 225 3675 
L 275 3750 
z
M 850 5075 
Q 1450 4750 1525 4587 
Q 1600 4425 1600 4375 
Q 1600 4250 1512 4150 
Q 1425 4050 1400 4050 
Q 1325 4050 1225 4325 
Q 1100 4700 800 5025 
L 850 5075 
z
" transform="scale(0.015625)"/>
       <path id="SimSun-53d1" d="M 2350 3600 
Q 2425 4000 2487 4437 
Q 2550 4875 2575 5250 
L 3100 5025 
L 2925 4850 
Q 2750 3850 2700 3600 
L 5200 3600 
L 5550 3950 
L 6025 3450 
L 2675 3450 
Q 2600 2975 2475 2525 
L 4625 2525 
L 4800 2800 
L 5225 2425 
L 5000 2250 
Q 4550 1425 3975 775 
Q 4800 100 6125 -150 
L 6125 -225 
Q 5750 -300 5650 -575 
Q 4475 -150 3775 525 
Q 2800 -300 1300 -625 
L 1275 -550 
Q 2825 -25 3550 775 
Q 3000 1500 2675 2375 
L 2450 2375 
Q 2175 1550 1687 812 
Q 1200 75 400 -450 
L 350 -375 
Q 750 -25 1137 500 
Q 1525 1025 1812 1687 
Q 2100 2350 2325 3450 
L 1175 3450 
L 975 3225 
L 650 3575 
L 850 3700 
Q 1200 4500 1275 4925 
L 1775 4650 
L 1575 4500 
Q 1325 3875 1200 3600 
L 2350 3600 
z
M 2800 2375 
Q 3200 1575 3750 1000 
Q 4225 1550 4625 2375 
L 2800 2375 
z
M 3850 5125 
Q 4575 4825 4800 4637 
Q 5025 4450 5025 4275 
Q 5025 4200 4962 4050 
Q 4900 3900 4850 3900 
Q 4775 3900 4650 4125 
Q 4425 4500 3800 5050 
L 3850 5125 
z
" transform="scale(0.015625)"/>
       <path id="SimSun-7535" d="M 2875 3900 
Q 2875 4625 2850 5225 
L 3425 4950 
L 3225 4775 
L 3225 3900 
L 4750 3900 
L 5000 4150 
L 5350 3800 
L 5125 3625 
Q 5125 1625 5150 1125 
L 4775 950 
L 4775 1250 
L 3225 1250 
L 3225 125 
Q 3225 -150 3525 -150 
L 5250 -150 
Q 5475 -125 5500 112 
Q 5525 350 5550 1075 
L 5675 1075 
Q 5675 450 5762 250 
Q 5850 50 6025 -75 
Q 5925 -275 5775 -362 
Q 5625 -450 5350 -450 
L 3400 -450 
Q 2875 -450 2875 50 
L 2875 1250 
L 1375 1250 
L 1375 900 
L 1000 725 
Q 1025 1575 1025 2475 
Q 1025 3375 1000 4125 
L 1400 3900 
L 2875 3900 
z
M 1375 3750 
L 1375 2675 
L 2875 2675 
L 2875 3750 
L 1375 3750 
z
M 3225 3750 
L 3225 2675 
L 4775 2675 
L 4775 3750 
L 3225 3750 
z
M 1375 2525 
L 1375 1400 
L 2875 1400 
L 2875 2525 
L 1375 2525 
z
M 3225 2525 
L 3225 1400 
L 4775 1400 
L 4775 2525 
L 3225 2525 
z
" transform="scale(0.015625)"/>
       <path id="SimSun-4f4d" d="M 1250 -600 
Q 1275 150 1275 3100 
Q 750 2225 325 1775 
L 250 1825 
Q 725 2575 1112 3450 
Q 1500 4325 1700 5225 
L 2275 4925 
L 2050 4800 
Q 1650 3900 1475 3500 
L 1800 3275 
L 1600 3125 
Q 1600 125 1625 -400 
L 1250 -600 
z
M 3300 5125 
L 3375 5175 
Q 4100 4625 4112 4375 
Q 4125 4125 4000 4025 
Q 3875 3925 3850 3925 
Q 3725 3925 3700 4200 
Q 3625 4575 3300 5125 
z
M 2025 3725 
L 5050 3725 
L 5400 4075 
L 5900 3575 
L 2825 3575 
Q 2525 3575 2250 3500 
L 2025 3725 
z
M 2600 3000 
L 2675 3050 
Q 3300 2050 3400 1712 
Q 3500 1375 3500 1200 
Q 3500 950 3362 800 
Q 3225 650 3175 650 
Q 3100 650 3100 825 
Q 3075 1125 2975 1675 
Q 2875 2225 2600 3000 
z
M 4725 3325 
L 5325 3000 
Q 5100 2875 4875 2125 
Q 4650 1375 4175 -25 
L 5300 -25 
L 5650 325 
L 6150 -175 
L 2700 -175 
Q 2375 -175 2100 -250 
L 1875 -25 
L 4000 -25 
Q 4300 1000 4500 1962 
Q 4700 2925 4725 3325 
z
" transform="scale(0.015625)"/>
       <path id="SimSun-2e" d="M 800 25 
Q 650 25 537 125 
Q 425 225 425 400 
Q 425 575 537 675 
Q 650 775 800 775 
Q 950 775 1062 662 
Q 1175 550 1175 400 
Q 1175 225 1062 125 
Q 950 25 800 25 
z
" transform="scale(0.015625)"/>
       <path id="SimSun-56" d="M 2125 4225 
L 2125 4375 
L 3025 4375 
L 3025 4225 
L 2925 4225 
Q 2825 4225 2737 4150 
Q 2650 4075 2600 3875 
L 1575 100 
L 1425 100 
L 500 3875 
Q 475 4050 412 4137 
Q 350 4225 225 4225 
L 100 4225 
L 100 4375 
L 1175 4375 
L 1175 4225 
L 1075 4225 
Q 950 4225 912 4150 
Q 875 4075 900 3950 
L 1600 1025 
L 1650 1025 
L 2400 3875 
Q 2425 3975 2425 4025 
Q 2425 4100 2387 4162 
Q 2350 4225 2200 4225 
L 2125 4225 
z
M 825 4225 
L 825 4225 
z
M 425 4225 
L 425 4225 
z
M 2700 4225 
L 2700 4225 
z
M 2500 4225 
L 2500 4225 
z
" transform="scale(0.015625)"/>
       <path id="SimSun-76f8" d="M 3700 1600 
L 3700 200 
L 5300 200 
L 5300 1600 
L 3700 1600 
z
M 3325 -550 
Q 3350 125 3350 2150 
Q 3350 4175 3325 4750 
L 3700 4500 
L 5250 4500 
L 5450 4775 
L 5875 4425 
L 5650 4250 
Q 5650 275 5675 -300 
L 5300 -475 
L 5300 50 
L 3700 50 
L 3700 -400 
L 3325 -550 
z
M 3700 4350 
L 3700 3100 
L 5300 3100 
L 5300 4350 
L 3700 4350 
z
M 3700 2950 
L 3700 1750 
L 5300 1750 
L 5300 2950 
L 3700 2950 
z
M 1650 3550 
Q 1650 4550 1625 5200 
L 2200 4950 
L 1975 4750 
L 1975 3550 
L 2475 3550 
L 2775 3875 
L 3200 3400 
L 1975 3400 
L 1975 2800 
Q 2475 2650 2662 2500 
Q 2850 2350 2850 2175 
Q 2850 2075 2800 1925 
Q 2750 1775 2700 1775 
Q 2650 1775 2525 2025 
Q 2325 2400 1975 2675 
Q 1975 225 2000 -400 
L 1625 -575 
Q 1650 975 1650 2375 
Q 1150 1250 325 375 
L 250 425 
Q 1250 1900 1600 3400 
L 1225 3400 
Q 900 3400 625 3325 
L 400 3550 
L 1650 3550 
z
" transform="scale(0.015625)"/>
       <path id="SimSun-5bf9" d="M 400 4250 
L 2375 4250 
L 2575 4500 
L 3000 4150 
L 2750 3950 
Q 2400 2850 2075 2100 
Q 2575 1375 2675 1062 
Q 2775 750 2762 537 
Q 2750 325 2662 237 
Q 2575 150 2550 150 
Q 2450 150 2375 575 
Q 2250 1075 1925 1800 
Q 1675 1350 1275 875 
Q 875 400 250 -100 
L 225 25 
Q 675 450 1087 1037 
Q 1500 1625 1725 2100 
Q 1000 3125 675 3550 
L 750 3625 
Q 1300 3025 1850 2400 
Q 2100 3050 2375 4100 
L 1225 4100 
Q 900 4100 625 4025 
L 400 4250 
z
M 3600 125 
Q 4375 0 4537 25 
Q 4700 50 4700 225 
L 4700 3350 
L 3525 3350 
Q 3200 3350 2925 3275 
L 2700 3500 
L 4700 3500 
L 4700 4350 
Q 4700 4800 4675 5125 
L 5275 4825 
L 5050 4625 
L 5050 3500 
L 5325 3500 
L 5650 3825 
L 6125 3350 
L 5050 3350 
L 5050 50 
Q 5050 -375 4500 -600 
Q 4500 -300 3600 0 
L 3600 125 
z
M 3100 2775 
L 3175 2825 
Q 3700 2400 3812 2175 
Q 3925 1950 3925 1800 
Q 3925 1625 3800 1462 
Q 3675 1300 3650 1300 
Q 3550 1300 3525 1650 
Q 3450 2125 3100 2775 
z
" transform="scale(0.015625)"/>
       <path id="SimSun-8bef" d="M 975 4900 
L 1050 4950 
Q 1525 4650 1650 4487 
Q 1775 4325 1750 4150 
Q 1725 3975 1637 3900 
Q 1550 3825 1525 3825 
Q 1425 3825 1375 4050 
Q 1300 4375 975 4900 
z
M 1625 600 
L 2475 1375 
L 2550 1325 
Q 2125 750 1900 450 
Q 1650 125 1525 -150 
L 1200 250 
Q 1300 375 1300 600 
L 1300 2775 
L 1025 2775 
Q 825 2775 550 2700 
L 325 2925 
L 1275 2925 
L 1450 3175 
L 1825 2850 
L 1625 2700 
L 1625 600 
z
M 3100 4650 
L 3100 3550 
L 4950 3550 
L 4950 4650 
L 3100 4650 
z
M 2750 3100 
Q 2775 3625 2775 4075 
Q 2775 4525 2750 5000 
L 3100 4800 
L 4925 4800 
L 5075 5025 
L 5450 4750 
L 5275 4600 
Q 5275 3800 5300 3325 
L 4950 3175 
L 4950 3400 
L 3100 3400 
L 3100 3225 
L 2750 3100 
z
M 2375 2725 
L 5050 2725 
L 5375 3050 
L 5825 2575 
L 4125 2575 
Q 4100 2100 4075 1675 
L 5275 1675 
L 5600 2000 
L 6050 1525 
L 4275 1525 
Q 4875 100 6075 -100 
L 6075 -200 
Q 5700 -200 5575 -500 
Q 4450 225 4175 1525 
L 4050 1525 
Q 3675 -50 1925 -600 
L 1875 -525 
Q 3425 250 3700 1525 
L 2750 1525 
Q 2500 1525 2225 1450 
L 2000 1675 
L 3725 1675 
Q 3775 2150 3775 2575 
L 3125 2575 
Q 2875 2575 2600 2500 
L 2375 2725 
z
" transform="scale(0.015625)"/>
       <path id="SimSun-5dee" d="M 1600 5100 
L 1650 5175 
Q 2300 4925 2400 4775 
Q 2500 4625 2500 4525 
Q 2500 4400 2437 4287 
Q 2375 4175 2325 4175 
Q 2250 4175 2175 4375 
Q 2025 4700 1600 5100 
z
M 3200 3925 
Q 3100 3450 3025 3175 
L 4650 3175 
L 4975 3500 
L 5450 3025 
L 3000 3025 
Q 2900 2675 2725 2275 
L 5075 2275 
L 5475 2675 
L 6025 2125 
L 2675 2125 
Q 1900 675 350 -200 
L 325 -100 
Q 1650 825 2325 2125 
L 950 2125 
L 600 2075 
L 400 2275 
L 2375 2275 
Q 2525 2650 2650 3025 
L 1550 3025 
L 1225 2975 
L 1025 3175 
L 2675 3175 
Q 2775 3575 2825 3925 
L 1250 3925 
L 900 3875 
L 700 4075 
L 3750 4075 
Q 4200 4925 4250 5250 
L 4800 4925 
Q 4550 4900 3900 4075 
L 5050 4075 
L 5425 4450 
L 5950 3925 
L 3200 3925 
z
M 2150 1275 
L 4650 1275 
L 4950 1575 
L 5400 1125 
L 3850 1125 
L 3850 -175 
L 5200 -175 
L 5550 175 
L 6050 -325 
L 2050 -325 
Q 1725 -325 1450 -400 
L 1225 -175 
L 3500 -175 
L 3500 1125 
L 2625 1125 
L 2350 1075 
L 2150 1275 
z
" transform="scale(0.015625)"/>
       <path id="SimSun-2d" d="M 200 2225 
L 200 2450 
L 2975 2450 
L 2975 2225 
L 200 2225 
z
" transform="scale(0.015625)"/>
       <path id="SimSun-25" d="M 750 4250 
Q 600 4250 500 4050 
Q 400 3850 400 3300 
Q 400 2675 512 2487 
Q 625 2300 750 2300 
Q 925 2300 1012 2525 
Q 1100 2750 1100 3300 
Q 1100 3750 1037 4000 
Q 975 4250 750 4250 
z
M 1425 3275 
Q 1425 2825 1275 2487 
Q 1125 2150 750 2150 
Q 450 2150 262 2450 
Q 75 2750 75 3275 
Q 75 3825 275 4125 
Q 475 4425 750 4425 
Q 1050 4425 1237 4112 
Q 1425 3800 1425 3275 
z
M 2725 1200 
Q 2725 1625 2650 1900 
Q 2575 2175 2375 2175 
Q 2225 2175 2125 1937 
Q 2025 1700 2025 1200 
Q 2025 575 2137 400 
Q 2250 225 2375 225 
Q 2550 225 2637 437 
Q 2725 650 2725 1200 
z
M 3050 1175 
Q 3050 675 2875 362 
Q 2700 50 2375 50 
Q 2100 50 1900 362 
Q 1700 675 1700 1175 
Q 1700 1725 1900 2037 
Q 2100 2350 2375 2350 
Q 2675 2350 2862 2025 
Q 3050 1700 3050 1175 
z
M 2525 4350 
L 725 50 
L 575 125 
L 2350 4425 
L 2525 4350 
z
" transform="scale(0.015625)"/>
      </defs>
      <use xlink:href="#SimSun-6807"/>
      <use xlink:href="#SimSun-51c6" transform="translate(100 0)"/>
      <use xlink:href="#SimSun-ff0c" transform="translate(200 0)"/>
      <use xlink:href="#SimSun-7b2c" transform="translate(300 0)"/>
      <use xlink:href="#SimSun-4e00" transform="translate(400 0)"/>
      <use xlink:href="#SimSun-6fc0" transform="translate(500 0)"/>
      <use xlink:href="#SimSun-53d1" transform="translate(600 0)"/>
      <use xlink:href="#SimSun-7535" transform="translate(700 0)"/>
      <use xlink:href="#SimSun-4f4d" transform="translate(800 0)"/>
      <use xlink:href="#SimSun-31" transform="translate(900 0)"/>
      <use xlink:href="#SimSun-31" transform="translate(950 0)"/>
      <use xlink:href="#SimSun-2e" transform="translate(1000 0)"/>
      <use xlink:href="#SimSun-38" transform="translate(1050 0)"/>
      <use xlink:href="#SimSun-30" transform="translate(1100 0)"/>
      <use xlink:href="#SimSun-30" transform="translate(1150 0)"/>
      <use xlink:href="#SimSun-56" transform="translate(1200 0)"/>
      <use xlink:href="#SimSun-ff0c" transform="translate(1250 0)"/>
      <use xlink:href="#SimSun-76f8" transform="translate(1350 0)"/>
      <use xlink:href="#SimSun-5bf9" transform="translate(1450 0)"/>
      <use xlink:href="#SimSun-8bef" transform="translate(1550 0)"/>
      <use xlink:href="#SimSun-5dee" transform="translate(1650 0)"/>
      <use xlink:href="#SimSun-2d" transform="translate(1750 0)"/>
      <use xlink:href="#SimSun-32" transform="translate(1800 0)"/>
      <use xlink:href="#SimSun-2e" transform="translate(1850 0)"/>
      <use xlink:href="#SimSun-31" transform="translate(1900 0)"/>
      <use xlink:href="#SimSun-36" transform="translate(1950 0)"/>
      <use xlink:href="#SimSun-25" transform="translate(2000 0)"/>
     </g>
    </g>
    <g id="line2d_17">
     <path d="M 46.6 49.6475 
L 56.6 49.6475 
L 66.6 49.6475 
" style="fill: none; stroke: #ff7f0e; stroke-width: 1.5; stroke-linecap: square"/>
    </g>
    <g id="text_16">
     <!-- 灯丝电压-0.1V，第一激发电位11.650V，相对误差-0.87% -->
     <g transform="translate(74.6 53.1475) scale(0.1 -0.1)">
      <defs>
       <path id="SimSun-706f" d="M 1400 5175 
L 1950 4950 
L 1775 4750 
L 1775 3150 
Q 2225 3675 2400 4100 
L 2825 3750 
Q 2625 3675 2400 3500 
Q 2175 3300 1775 3000 
Q 1750 2025 1675 1550 
Q 2275 1225 2475 975 
Q 2675 725 2637 525 
Q 2600 325 2500 300 
Q 2400 275 2225 700 
Q 2025 1125 1650 1425 
Q 1400 250 400 -525 
L 375 -425 
Q 1100 400 1275 1162 
Q 1450 1925 1437 2887 
Q 1425 3850 1400 5175 
z
M 900 3625 
Q 900 3275 887 3012 
Q 875 2750 787 2600 
Q 700 2450 550 2400 
Q 400 2350 337 2437 
Q 275 2525 275 2550 
Q 275 2650 425 2775 
Q 625 2950 800 3625 
L 900 3625 
z
M 3050 75 
Q 3750 -25 3937 -12 
Q 4125 0 4125 300 
L 4125 4275 
L 3375 4275 
Q 3050 4275 2775 4200 
L 2550 4425 
L 5200 4425 
L 5550 4775 
L 6025 4275 
L 4500 4275 
L 4500 100 
Q 4500 -175 4350 -350 
Q 4200 -525 3900 -625 
Q 3700 -200 3025 -25 
L 3050 75 
z
" transform="scale(0.015625)"/>
       <path id="SimSun-4e1d" d="M 1000 2800 
Q 1325 2850 2100 2875 
Q 2350 3275 2600 3850 
L 3050 3500 
Q 2825 3375 2650 3100 
Q 2450 2825 1200 1250 
Q 1525 1275 3075 1500 
L 3100 1375 
Q 1200 975 1025 675 
L 700 1225 
Q 925 1250 1362 1812 
Q 1800 2375 2025 2750 
Q 1125 2600 900 2350 
L 600 2850 
Q 875 2850 1250 3650 
Q 1625 4450 1775 5075 
L 2275 4775 
Q 2050 4625 1675 3925 
Q 1275 3225 1000 2800 
z
M 300 75 
L 5125 75 
L 5525 475 
L 6075 -75 
L 1175 -75 
Q 800 -75 525 -150 
L 300 75 
z
M 4250 5100 
L 4750 4775 
Q 4500 4625 4150 4050 
Q 3800 3450 3425 2900 
Q 3650 2900 4550 2925 
Q 4850 3375 5100 3975 
L 5550 3575 
Q 5325 3475 5100 3150 
Q 4875 2825 3700 1250 
Q 5100 1375 5600 1450 
L 5625 1325 
Q 3775 1000 3550 725 
L 3250 1300 
Q 3425 1300 3612 1500 
Q 3800 1700 4500 2800 
Q 3375 2600 3275 2450 
L 3025 2950 
Q 3300 2950 3700 3737 
Q 4100 4525 4250 5100 
z
" transform="scale(0.015625)"/>
       <path id="SimSun-538b" d="M 1850 2550 
L 3300 2550 
L 3300 3675 
Q 3300 4050 3275 4325 
L 3850 4025 
L 3650 3850 
L 3650 2550 
L 4750 2550 
L 5075 2875 
L 5550 2400 
L 3650 2400 
L 3650 50 
L 5250 50 
L 5600 400 
L 6100 -100 
L 1925 -100 
Q 1600 -100 1325 -175 
L 1100 50 
L 3300 50 
L 3300 2400 
L 2675 2400 
Q 2350 2400 2075 2325 
L 1850 2550 
z
M 1150 4075 
Q 1150 4425 1125 4975 
L 1500 4725 
L 4975 4725 
L 5350 5100 
L 5875 4575 
L 1500 4575 
L 1500 2625 
Q 1525 1450 1237 762 
Q 950 75 350 -525 
L 275 -450 
Q 650 50 900 700 
Q 1150 1350 1150 2425 
L 1150 4075 
z
M 4125 1875 
L 4200 1925 
Q 4800 1525 5025 1300 
Q 5250 1075 5250 900 
Q 5250 800 5150 637 
Q 5050 475 5000 475 
Q 4925 475 4850 700 
Q 4725 1075 4125 1875 
z
" transform="scale(0.015625)"/>
       <path id="SimSun-35" d="M 1725 2850 
Q 2200 2850 2500 2487 
Q 2800 2125 2800 1525 
Q 2800 850 2487 450 
Q 2175 50 1525 50 
Q 1075 50 725 312 
Q 375 575 375 950 
Q 375 1100 462 1212 
Q 550 1325 700 1325 
Q 850 1325 900 1225 
Q 950 1125 950 1050 
Q 950 900 875 825 
Q 800 725 800 625 
Q 800 425 1037 325 
Q 1275 225 1550 225 
Q 1950 225 2162 550 
Q 2375 875 2375 1475 
Q 2375 1975 2187 2287 
Q 2000 2600 1625 2600 
Q 1350 2600 1150 2500 
Q 950 2400 775 2075 
L 550 2100 
L 675 4375 
L 2725 4375 
L 2650 4000 
L 850 4000 
L 750 2350 
Q 1000 2700 1237 2775 
Q 1475 2850 1725 2850 
z
" transform="scale(0.015625)"/>
       <path id="SimSun-37" d="M 2825 4200 
Q 2300 3350 1987 2537 
Q 1675 1725 1675 1125 
Q 1675 1025 1700 850 
Q 1700 650 1700 400 
Q 1700 200 1637 125 
Q 1575 50 1425 50 
Q 1300 50 1212 137 
Q 1125 225 1125 450 
Q 1125 925 1337 1625 
Q 1550 2325 2475 4000 
L 1225 4000 
Q 950 4000 787 3825 
Q 625 3650 550 3300 
L 400 3325 
L 575 4375 
L 2825 4375 
L 2825 4200 
z
" transform="scale(0.015625)"/>
      </defs>
      <use xlink:href="#SimSun-706f"/>
      <use xlink:href="#SimSun-4e1d" transform="translate(100 0)"/>
      <use xlink:href="#SimSun-7535" transform="translate(200 0)"/>
      <use xlink:href="#SimSun-538b" transform="translate(300 0)"/>
      <use xlink:href="#SimSun-2d" transform="translate(400 0)"/>
      <use xlink:href="#SimSun-30" transform="translate(450 0)"/>
      <use xlink:href="#SimSun-2e" transform="translate(500 0)"/>
      <use xlink:href="#SimSun-31" transform="translate(550 0)"/>
      <use xlink:href="#SimSun-56" transform="translate(600 0)"/>
      <use xlink:href="#SimSun-ff0c" transform="translate(650 0)"/>
      <use xlink:href="#SimSun-7b2c" transform="translate(750 0)"/>
      <use xlink:href="#SimSun-4e00" transform="translate(850 0)"/>
      <use xlink:href="#SimSun-6fc0" transform="translate(950 0)"/>
      <use xlink:href="#SimSun-53d1" transform="translate(1050 0)"/>
      <use xlink:href="#SimSun-7535" transform="translate(1150 0)"/>
      <use xlink:href="#SimSun-4f4d" transform="translate(1250 0)"/>
      <use xlink:href="#SimSun-31" transform="translate(1350 0)"/>
      <use xlink:href="#SimSun-31" transform="translate(1400 0)"/>
      <use xlink:href="#SimSun-2e" transform="translate(1450 0)"/>
      <use xlink:href="#SimSun-36" transform="translate(1500 0)"/>
      <use xlink:href="#SimSun-35" transform="translate(1550 0)"/>
      <use xlink:href="#SimSun-30" transform="translate(1600 0)"/>
      <use xlink:href="#SimSun-56" transform="translate(1650 0)"/>
      <use xlink:href="#SimSun-ff0c" transform="translate(1700 0)"/>
      <use xlink:href="#SimSun-76f8" transform="translate(1800 0)"/>
      <use xlink:href="#SimSun-5bf9" transform="translate(1900 0)"/>
      <use xlink:href="#SimSun-8bef" transform="translate(2000 0)"/>
      <use xlink:href="#SimSun-5dee" transform="translate(2100 0)"/>
      <use xlink:href="#SimSun-2d" transform="translate(2200 0)"/>
      <use xlink:href="#SimSun-30" transform="translate(2250 0)"/>
      <use xlink:href="#SimSun-2e" transform="translate(2300 0)"/>
      <use xlink:href="#SimSun-38" transform="translate(2350 0)"/>
      <use xlink:href="#SimSun-37" transform="translate(2400 0)"/>
      <use xlink:href="#SimSun-25" transform="translate(2450 0)"/>
     </g>
    </g>
    <g id="line2d_18">
     <path d="M 46.6 63.86625 
L 56.6 63.86625 
L 66.6 63.86625 
" style="fill: none; stroke: #2ca02c; stroke-width: 1.5; stroke-linecap: square"/>
    </g>
    <g id="text_17">
     <!-- 第一栅极电压-0.2V，第一激发电位11.500V，相对误差0.43% -->
     <g transform="translate(74.6 67.36625) scale(0.1 -0.1)">
      <defs>
       <path id="SimSun-6805" d="M 2850 4575 
L 2850 2525 
L 3400 2525 
L 3400 4575 
L 2850 4575 
z
M 4450 4575 
L 4450 2525 
L 5100 2525 
L 5100 4575 
L 4450 4575 
z
M 2550 2525 
Q 2550 4125 2525 4925 
L 2875 4725 
L 3375 4725 
L 3575 4925 
L 3900 4625 
L 3700 4500 
L 3700 2525 
L 4150 2525 
Q 4150 4125 4125 4950 
L 4475 4725 
L 5075 4725 
L 5275 4950 
L 5625 4650 
L 5425 4500 
L 5425 2525 
L 5450 2525 
L 5725 2800 
L 6150 2375 
L 5425 2375 
L 5425 0 
Q 5425 -375 4975 -550 
Q 4950 -275 4425 -125 
L 4425 -25 
Q 4750 -75 4900 -75 
Q 4975 -75 5037 -50 
Q 5100 -25 5100 200 
L 5100 2375 
L 4450 2375 
L 4450 1650 
Q 4450 200 3600 -650 
L 3525 -600 
Q 4150 300 4150 1675 
L 4150 2375 
L 3700 2375 
L 3700 200 
Q 3700 -225 3250 -375 
Q 3275 -100 2775 50 
L 2775 150 
Q 3100 100 3250 100 
Q 3400 100 3400 350 
L 3400 2375 
L 2850 2375 
L 2850 1825 
Q 2875 250 1850 -625 
L 1775 -575 
Q 2575 350 2550 1800 
L 2550 2375 
L 2525 2375 
L 2400 2325 
L 2200 2525 
L 2550 2525 
z
M 1550 2700 
Q 1550 75 1575 -500 
L 1200 -650 
Q 1225 500 1225 2250 
Q 850 1325 325 700 
L 250 750 
Q 975 2025 1225 3450 
L 700 3450 
L 500 3400 
L 275 3600 
L 1225 3600 
Q 1225 4550 1200 5250 
L 1750 4950 
L 1550 4775 
L 1550 3600 
L 1750 3600 
L 2000 3850 
L 2400 3450 
L 1550 3450 
L 1550 2825 
Q 1975 2625 2112 2487 
Q 2250 2350 2250 2225 
Q 2250 2125 2175 1975 
Q 2100 1825 2075 1825 
Q 2000 1825 1950 2025 
Q 1825 2350 1550 2700 
z
" transform="scale(0.015625)"/>
       <path id="SimSun-6781" d="M 5325 4475 
L 4600 2950 
L 5275 2950 
L 5525 3200 
L 5925 2825 
L 5675 2700 
Q 5300 1600 4700 825 
Q 5375 125 6125 -25 
L 6125 -125 
Q 5700 -175 5625 -425 
Q 5025 -100 4475 575 
Q 3625 -200 2675 -550 
L 2625 -475 
Q 3575 25 4275 825 
Q 3625 1750 3475 2850 
Q 3425 600 2000 -525 
L 1950 -450 
Q 2525 200 2775 837 
Q 3025 1475 3100 2125 
Q 3175 2775 3175 4575 
L 2875 4575 
L 2650 4525 
L 2450 4725 
L 4925 4725 
L 5150 4975 
L 5550 4650 
L 5325 4475 
z
M 3525 4575 
Q 3500 3575 3500 3075 
Q 3775 1975 4475 1075 
Q 4925 1650 5325 2800 
L 4550 2800 
L 4350 2575 
L 4000 2925 
Q 4250 3000 4462 3450 
Q 4675 3900 4950 4575 
L 3525 4575 
z
M 1725 2825 
Q 1725 0 1750 -450 
L 1350 -625 
Q 1375 575 1375 2525 
Q 1025 1550 425 800 
L 350 850 
Q 1025 2075 1350 3600 
L 750 3600 
L 525 3550 
L 325 3750 
L 1375 3750 
Q 1375 4650 1350 5250 
L 1925 4975 
L 1725 4800 
L 1725 3750 
L 2025 3750 
L 2325 4050 
L 2775 3600 
L 1725 3600 
L 1725 2950 
Q 2375 2650 2500 2487 
Q 2625 2325 2625 2200 
Q 2625 2075 2550 1937 
Q 2475 1800 2425 1800 
Q 2350 1800 2250 2050 
Q 2100 2425 1725 2825 
z
" transform="scale(0.015625)"/>
       <path id="SimSun-33" d="M 2800 1250 
Q 2800 775 2450 412 
Q 2100 50 1475 50 
Q 1025 50 700 300 
Q 375 550 375 875 
Q 375 1025 475 1137 
Q 575 1250 675 1250 
Q 825 1250 887 1137 
Q 950 1025 950 950 
Q 950 825 900 750 
Q 850 650 850 575 
Q 850 425 1037 325 
Q 1225 225 1450 225 
Q 1900 225 2125 487 
Q 2350 750 2350 1300 
Q 2350 1750 2112 2025 
Q 1875 2300 1225 2300 
L 1225 2475 
Q 1725 2475 1962 2712 
Q 2200 2950 2200 3375 
Q 2200 3725 2012 3987 
Q 1825 4250 1425 4250 
Q 1250 4250 1050 4162 
Q 850 4075 850 3875 
Q 850 3675 900 3625 
Q 950 3575 950 3500 
Q 950 3375 900 3300 
Q 850 3225 725 3225 
Q 625 3225 537 3300 
Q 450 3375 450 3575 
Q 450 3950 775 4187 
Q 1100 4425 1525 4425 
Q 2025 4425 2325 4112 
Q 2625 3800 2625 3450 
Q 2625 3075 2437 2812 
Q 2250 2550 1850 2425 
Q 2400 2225 2600 1900 
Q 2800 1575 2800 1250 
z
" transform="scale(0.015625)"/>
      </defs>
      <use xlink:href="#SimSun-7b2c"/>
      <use xlink:href="#SimSun-4e00" transform="translate(100 0)"/>
      <use xlink:href="#SimSun-6805" transform="translate(200 0)"/>
      <use xlink:href="#SimSun-6781" transform="translate(300 0)"/>
      <use xlink:href="#SimSun-7535" transform="translate(400 0)"/>
      <use xlink:href="#SimSun-538b" transform="translate(500 0)"/>
      <use xlink:href="#SimSun-2d" transform="translate(600 0)"/>
      <use xlink:href="#SimSun-30" transform="translate(650 0)"/>
      <use xlink:href="#SimSun-2e" transform="translate(700 0)"/>
      <use xlink:href="#SimSun-32" transform="translate(750 0)"/>
      <use xlink:href="#SimSun-56" transform="translate(800 0)"/>
      <use xlink:href="#SimSun-ff0c" transform="translate(850 0)"/>
      <use xlink:href="#SimSun-7b2c" transform="translate(950 0)"/>
      <use xlink:href="#SimSun-4e00" transform="translate(1050 0)"/>
      <use xlink:href="#SimSun-6fc0" transform="translate(1150 0)"/>
      <use xlink:href="#SimSun-53d1" transform="translate(1250 0)"/>
      <use xlink:href="#SimSun-7535" transform="translate(1350 0)"/>
      <use xlink:href="#SimSun-4f4d" transform="translate(1450 0)"/>
      <use xlink:href="#SimSun-31" transform="translate(1550 0)"/>
      <use xlink:href="#SimSun-31" transform="translate(1600 0)"/>
      <use xlink:href="#SimSun-2e" transform="translate(1650 0)"/>
      <use xlink:href="#SimSun-35" transform="translate(1700 0)"/>
      <use xlink:href="#SimSun-30" transform="translate(1750 0)"/>
      <use xlink:href="#SimSun-30" transform="translate(1800 0)"/>
      <use xlink:href="#SimSun-56" transform="translate(1850 0)"/>
      <use xlink:href="#SimSun-ff0c" transform="translate(1900 0)"/>
      <use xlink:href="#SimSun-76f8" transform="translate(2000 0)"/>
      <use xlink:href="#SimSun-5bf9" transform="translate(2100 0)"/>
      <use xlink:href="#SimSun-8bef" transform="translate(2200 0)"/>
      <use xlink:href="#SimSun-5dee" transform="translate(2300 0)"/>
      <use xlink:href="#SimSun-30" transform="translate(2400 0)"/>
      <use xlink:href="#SimSun-2e" transform="translate(2450 0)"/>
      <use xlink:href="#SimSun-34" transform="translate(2500 0)"/>
      <use xlink:href="#SimSun-33" transform="translate(2550 0)"/>
      <use xlink:href="#SimSun-25" transform="translate(2600 0)"/>
     </g>
    </g>
    <g id="line2d_19">
     <path d="M 46.6 78.085 
L 56.6 78.085 
L 66.6 78.085 
" style="fill: none; stroke: #d62728; stroke-width: 1.5; stroke-linecap: square"/>
    </g>
    <g id="text_18">
     <!-- 拒斥电压+2V，第一激发电位11.700V，相对误差-1.30% -->
     <g transform="translate(74.6 81.585) scale(0.1 -0.1)">
      <defs>
       <path id="SimSun-62d2" d="M 5450 2925 
Q 5450 1650 5475 1200 
L 5100 1050 
L 5100 1450 
L 3250 1450 
L 3250 -125 
L 5200 -125 
L 5525 200 
L 6000 -275 
L 3275 -275 
L 3025 -500 
L 2700 -175 
L 2900 -25 
L 2900 3725 
Q 2900 4300 2875 4775 
L 3300 4525 
L 5025 4525 
L 5325 4825 
L 5775 4375 
L 3250 4375 
L 3250 3200 
L 5075 3200 
L 5300 3425 
L 5650 3075 
L 5450 2925 
z
M 3250 3050 
L 3250 1600 
L 5100 1600 
L 5100 3050 
L 3250 3050 
z
M 1425 2100 
Q 625 1600 625 1450 
L 250 1900 
Q 400 1900 1425 2375 
L 1425 3625 
L 1050 3625 
Q 725 3625 450 3550 
L 225 3775 
L 1425 3775 
Q 1425 4575 1400 5225 
L 2025 4925 
L 1775 4750 
L 1775 3775 
L 2125 3775 
L 2375 4025 
L 2775 3625 
L 1775 3625 
L 1775 2525 
L 2550 2925 
L 2625 2825 
L 1775 2300 
L 1775 0 
Q 1750 -450 1225 -625 
Q 1225 -350 550 -125 
L 550 0 
Q 1050 -75 1237 -75 
Q 1425 -75 1425 225 
L 1425 2100 
z
" transform="scale(0.015625)"/>
       <path id="SimSun-65a5" d="M 4050 1550 
L 4050 350 
Q 4050 25 4075 -425 
L 3675 -600 
Q 3700 575 3700 1675 
Q 2925 2000 2550 2125 
L 2575 2225 
Q 2950 2125 3700 1950 
L 3700 2975 
L 1775 2975 
Q 1775 1625 1462 825 
Q 1150 25 350 -625 
L 300 -550 
Q 1050 300 1225 1125 
Q 1400 1950 1412 2775 
Q 1425 3600 1400 4625 
L 1800 4400 
Q 2950 4550 3762 4775 
Q 4575 5000 4825 5225 
L 5275 4700 
Q 5025 4700 4725 4650 
Q 4425 4600 3762 4500 
Q 3100 4400 1775 4275 
L 1775 3125 
L 5125 3125 
L 5500 3500 
L 6025 2975 
L 4050 2975 
L 4050 1850 
Q 5200 1550 5387 1350 
Q 5575 1150 5537 937 
Q 5500 725 5400 725 
Q 5325 725 5125 900 
Q 4775 1225 4050 1550 
z
" transform="scale(0.015625)"/>
       <path id="SimSun-2b" d="M 1525 2450 
L 1525 3875 
L 1750 3875 
L 1750 2450 
L 3000 2450 
L 3000 2225 
L 1750 2225 
L 1750 800 
L 1525 800 
L 1525 2225 
L 275 2225 
L 275 2450 
L 1525 2450 
z
" transform="scale(0.015625)"/>
      </defs>
      <use xlink:href="#SimSun-62d2"/>
      <use xlink:href="#SimSun-65a5" transform="translate(100 0)"/>
      <use xlink:href="#SimSun-7535" transform="translate(200 0)"/>
      <use xlink:href="#SimSun-538b" transform="translate(300 0)"/>
      <use xlink:href="#SimSun-2b" transform="translate(400 0)"/>
      <use xlink:href="#SimSun-32" transform="translate(450 0)"/>
      <use xlink:href="#SimSun-56" transform="translate(500 0)"/>
      <use xlink:href="#SimSun-ff0c" transform="translate(550 0)"/>
      <use xlink:href="#SimSun-7b2c" transform="translate(650 0)"/>
      <use xlink:href="#SimSun-4e00" transform="translate(750 0)"/>
      <use xlink:href="#SimSun-6fc0" transform="translate(850 0)"/>
      <use xlink:href="#SimSun-53d1" transform="translate(950 0)"/>
      <use xlink:href="#SimSun-7535" transform="translate(1050 0)"/>
      <use xlink:href="#SimSun-4f4d" transform="translate(1150 0)"/>
      <use xlink:href="#SimSun-31" transform="translate(1250 0)"/>
      <use xlink:href="#SimSun-31" transform="translate(1300 0)"/>
      <use xlink:href="#SimSun-2e" transform="translate(1350 0)"/>
      <use xlink:href="#SimSun-37" transform="translate(1400 0)"/>
      <use xlink:href="#SimSun-30" transform="translate(1450 0)"/>
      <use xlink:href="#SimSun-30" transform="translate(1500 0)"/>
      <use xlink:href="#SimSun-56" transform="translate(1550 0)"/>
      <use xlink:href="#SimSun-ff0c" transform="translate(1600 0)"/>
      <use xlink:href="#SimSun-76f8" transform="translate(1700 0)"/>
      <use xlink:href="#SimSun-5bf9" transform="translate(1800 0)"/>
      <use xlink:href="#SimSun-8bef" transform="translate(1900 0)"/>
      <use xlink:href="#SimSun-5dee" transform="translate(2000 0)"/>
      <use xlink:href="#SimSun-2d" transform="translate(2100 0)"/>
      <use xlink:href="#SimSun-31" transform="translate(2150 0)"/>
      <use xlink:href="#SimSun-2e" transform="translate(2200 0)"/>
      <use xlink:href="#SimSun-33" transform="translate(2250 0)"/>
      <use xlink:href="#SimSun-30" transform="translate(2300 0)"/>
      <use xlink:href="#SimSun-25" transform="translate(2350 0)"/>
     </g>
    </g>
   </g>
  </g>
 </g>
 <defs>
  <clipPath id="pc28adda715">
   <rect x="37.6" y="21.96" width="357.12" height="266.112"/>
  </clipPath>
 </defs>
</svg>
