<?xml version="1.0" encoding="utf-8" standalone="no"?>
<!DOCTYPE svg PUBLIC "-//W3C//DTD SVG 1.1//EN"
  "http://www.w3.org/Graphics/SVG/1.1/DTD/svg11.dtd">
<svg xmlns:xlink="http://www.w3.org/1999/xlink" width="396.92pt" height="325.8895pt" viewBox="0 0 396.92 325.8895" xmlns="http://www.w3.org/2000/svg" version="1.1">
 <metadata>
  <rdf:RDF xmlns:dc="http://purl.org/dc/elements/1.1/" xmlns:cc="http://creativecommons.org/ns#" xmlns:rdf="http://www.w3.org/1999/02/22-rdf-syntax-ns#">
   <cc:Work>
    <dc:type rdf:resource="http://purl.org/dc/dcmitype/StillImage"/>
    <dc:date>2026-03-27T21:45:52.739608</dc:date>
    <dc:format>image/svg+xml</dc:format>
    <dc:creator>
     <cc:Agent>
      <dc:title>Matplotlib v3.10.8, https://matplotlib.org/</dc:title>
     </cc:Agent>
    </dc:creator>
   </cc:Work>
  </rdf:RDF>
 </metadata>
 <defs>
  <style type="text/css">*{stroke-linejoin: round; stroke-linecap: butt}</style>
 </defs>
 <g id="figure_1">
  <g id="patch_1">
   <path d="M 0 325.8895 
L 396.92 325.8895 
L 396.92 0 
L 0 0 
z
" style="fill: #ffffff"/>
  </g>
  <g id="axes_1">
   <g id="patch_2">
    <path d="M 32.6 289.152 
L 389.72 289.152 
L 389.72 23.04 
L 32.6 23.04 
z
" style="fill: #ffffff"/>
   </g>
   <g id="PathCollection_1">
    <defs>
     <path id="mf9a7001fd2" d="M -3 3 
L 3 -3 
M -3 -3 
L 3 3 
" style="stroke: #ffa500; stroke-width: 1.5"/>
    </defs>
    <g clip-path="url(#pad2945bbe1)">
     <use xlink:href="#mf9a7001fd2" x="48.832727" y="277.056" style="fill: #ffa500; stroke: #ffa500; stroke-width: 1.5"/>
     <use xlink:href="#mf9a7001fd2" x="50.812328" y="277.056" style="fill: #ffa500; stroke: #ffa500; stroke-width: 1.5"/>
     <use xlink:href="#mf9a7001fd2" x="52.791929" y="277.056" style="fill: #ffa500; stroke: #ffa500; stroke-width: 1.5"/>
     <use xlink:href="#mf9a7001fd2" x="54.77153" y="277.056" style="fill: #ffa500; stroke: #ffa500; stroke-width: 1.5"/>
     <use xlink:href="#mf9a7001fd2" x="56.751131" y="277.056" style="fill: #ffa500; stroke: #ffa500; stroke-width: 1.5"/>
     <use xlink:href="#mf9a7001fd2" x="58.730732" y="277.056" style="fill: #ffa500; stroke: #ffa500; stroke-width: 1.5"/>
     <use xlink:href="#mf9a7001fd2" x="60.710333" y="277.056" style="fill: #ffa500; stroke: #ffa500; stroke-width: 1.5"/>
     <use xlink:href="#mf9a7001fd2" x="62.689933" y="277.056" style="fill: #ffa500; stroke: #ffa500; stroke-width: 1.5"/>
     <use xlink:href="#mf9a7001fd2" x="64.669534" y="277.056" style="fill: #ffa500; stroke: #ffa500; stroke-width: 1.5"/>
     <use xlink:href="#mf9a7001fd2" x="66.649135" y="277.056" style="fill: #ffa500; stroke: #ffa500; stroke-width: 1.5"/>
     <use xlink:href="#mf9a7001fd2" x="68.628736" y="277.056" style="fill: #ffa500; stroke: #ffa500; stroke-width: 1.5"/>
     <use xlink:href="#mf9a7001fd2" x="70.608337" y="277.056" style="fill: #ffa500; stroke: #ffa500; stroke-width: 1.5"/>
     <use xlink:href="#mf9a7001fd2" x="72.587938" y="277.056" style="fill: #ffa500; stroke: #ffa500; stroke-width: 1.5"/>
     <use xlink:href="#mf9a7001fd2" x="74.567539" y="277.056" style="fill: #ffa500; stroke: #ffa500; stroke-width: 1.5"/>
     <use xlink:href="#mf9a7001fd2" x="76.54714" y="277.056" style="fill: #ffa500; stroke: #ffa500; stroke-width: 1.5"/>
     <use xlink:href="#mf9a7001fd2" x="78.526741" y="277.056" style="fill: #ffa500; stroke: #ffa500; stroke-width: 1.5"/>
     <use xlink:href="#mf9a7001fd2" x="80.506341" y="277.056" style="fill: #ffa500; stroke: #ffa500; stroke-width: 1.5"/>
     <use xlink:href="#mf9a7001fd2" x="82.485942" y="277.056" style="fill: #ffa500; stroke: #ffa500; stroke-width: 1.5"/>
     <use xlink:href="#mf9a7001fd2" x="84.465543" y="277.056" style="fill: #ffa500; stroke: #ffa500; stroke-width: 1.5"/>
     <use xlink:href="#mf9a7001fd2" x="86.445144" y="277.056" style="fill: #ffa500; stroke: #ffa500; stroke-width: 1.5"/>
     <use xlink:href="#mf9a7001fd2" x="88.424745" y="277.010899" style="fill: #ffa500; stroke: #ffa500; stroke-width: 1.5"/>
     <use xlink:href="#mf9a7001fd2" x="90.404346" y="276.740295" style="fill: #ffa500; stroke: #ffa500; stroke-width: 1.5"/>
     <use xlink:href="#mf9a7001fd2" x="92.383947" y="276.334389" style="fill: #ffa500; stroke: #ffa500; stroke-width: 1.5"/>
     <use xlink:href="#mf9a7001fd2" x="94.363548" y="275.70298" style="fill: #ffa500; stroke: #ffa500; stroke-width: 1.5"/>
     <use xlink:href="#mf9a7001fd2" x="96.343149" y="275.07157" style="fill: #ffa500; stroke: #ffa500; stroke-width: 1.5"/>
     <use xlink:href="#mf9a7001fd2" x="98.322749" y="274.530362" style="fill: #ffa500; stroke: #ffa500; stroke-width: 1.5"/>
     <use xlink:href="#mf9a7001fd2" x="100.30235" y="273.808752" style="fill: #ffa500; stroke: #ffa500; stroke-width: 1.5"/>
     <use xlink:href="#mf9a7001fd2" x="102.281951" y="273.267544" style="fill: #ffa500; stroke: #ffa500; stroke-width: 1.5"/>
     <use xlink:href="#mf9a7001fd2" x="104.261552" y="272.636134" style="fill: #ffa500; stroke: #ffa500; stroke-width: 1.5"/>
     <use xlink:href="#mf9a7001fd2" x="106.241153" y="272.185128" style="fill: #ffa500; stroke: #ffa500; stroke-width: 1.5"/>
     <use xlink:href="#mf9a7001fd2" x="108.220754" y="272.500832" style="fill: #ffa500; stroke: #ffa500; stroke-width: 1.5"/>
     <use xlink:href="#mf9a7001fd2" x="110.200355" y="272.004725" style="fill: #ffa500; stroke: #ffa500; stroke-width: 1.5"/>
     <use xlink:href="#mf9a7001fd2" x="112.179956" y="271.779221" style="fill: #ffa500; stroke: #ffa500; stroke-width: 1.5"/>
     <use xlink:href="#mf9a7001fd2" x="114.159557" y="271.328215" style="fill: #ffa500; stroke: #ffa500; stroke-width: 1.5"/>
     <use xlink:href="#mf9a7001fd2" x="116.139157" y="270.922309" style="fill: #ffa500; stroke: #ffa500; stroke-width: 1.5"/>
     <use xlink:href="#mf9a7001fd2" x="118.118758" y="270.561503" style="fill: #ffa500; stroke: #ffa500; stroke-width: 1.5"/>
     <use xlink:href="#mf9a7001fd2" x="120.098359" y="270.245799" style="fill: #ffa500; stroke: #ffa500; stroke-width: 1.5"/>
     <use xlink:href="#mf9a7001fd2" x="122.07796" y="269.975195" style="fill: #ffa500; stroke: #ffa500; stroke-width: 1.5"/>
     <use xlink:href="#mf9a7001fd2" x="124.057561" y="269.749691" style="fill: #ffa500; stroke: #ffa500; stroke-width: 1.5"/>
     <use xlink:href="#mf9a7001fd2" x="126.037162" y="269.569289" style="fill: #ffa500; stroke: #ffa500; stroke-width: 1.5"/>
     <use xlink:href="#mf9a7001fd2" x="128.016763" y="269.343785" style="fill: #ffa500; stroke: #ffa500; stroke-width: 1.5"/>
     <use xlink:href="#mf9a7001fd2" x="129.996364" y="269.208483" style="fill: #ffa500; stroke: #ffa500; stroke-width: 1.5"/>
     <use xlink:href="#mf9a7001fd2" x="131.975965" y="269.163383" style="fill: #ffa500; stroke: #ffa500; stroke-width: 1.5"/>
     <use xlink:href="#mf9a7001fd2" x="133.955565" y="269.163383" style="fill: #ffa500; stroke: #ffa500; stroke-width: 1.5"/>
     <use xlink:href="#mf9a7001fd2" x="135.935166" y="269.208483" style="fill: #ffa500; stroke: #ffa500; stroke-width: 1.5"/>
     <use xlink:href="#mf9a7001fd2" x="137.914767" y="269.253584" style="fill: #ffa500; stroke: #ffa500; stroke-width: 1.5"/>
     <use xlink:href="#mf9a7001fd2" x="139.894368" y="269.343785" style="fill: #ffa500; stroke: #ffa500; stroke-width: 1.5"/>
     <use xlink:href="#mf9a7001fd2" x="141.873969" y="269.433987" style="fill: #ffa500; stroke: #ffa500; stroke-width: 1.5"/>
     <use xlink:href="#mf9a7001fd2" x="143.85357" y="269.479087" style="fill: #ffa500; stroke: #ffa500; stroke-width: 1.5"/>
     <use xlink:href="#mf9a7001fd2" x="145.833171" y="269.569289" style="fill: #ffa500; stroke: #ffa500; stroke-width: 1.5"/>
     <use xlink:href="#mf9a7001fd2" x="147.812772" y="269.524188" style="fill: #ffa500; stroke: #ffa500; stroke-width: 1.5"/>
     <use xlink:href="#mf9a7001fd2" x="149.792373" y="269.388886" style="fill: #ffa500; stroke: #ffa500; stroke-width: 1.5"/>
     <use xlink:href="#mf9a7001fd2" x="151.771973" y="268.847678" style="fill: #ffa500; stroke: #ffa500; stroke-width: 1.5"/>
     <use xlink:href="#mf9a7001fd2" x="153.751574" y="268.396671" style="fill: #ffa500; stroke: #ffa500; stroke-width: 1.5"/>
     <use xlink:href="#mf9a7001fd2" x="155.731175" y="267.62996" style="fill: #ffa500; stroke: #ffa500; stroke-width: 1.5"/>
     <use xlink:href="#mf9a7001fd2" x="157.710776" y="266.863248" style="fill: #ffa500; stroke: #ffa500; stroke-width: 1.5"/>
     <use xlink:href="#mf9a7001fd2" x="159.690377" y="265.961235" style="fill: #ffa500; stroke: #ffa500; stroke-width: 1.5"/>
     <use xlink:href="#mf9a7001fd2" x="161.669978" y="264.923919" style="fill: #ffa500; stroke: #ffa500; stroke-width: 1.5"/>
     <use xlink:href="#mf9a7001fd2" x="163.649579" y="263.796403" style="fill: #ffa500; stroke: #ffa500; stroke-width: 1.5"/>
     <use xlink:href="#mf9a7001fd2" x="165.62918" y="260.864859" style="fill: #ffa500; stroke: #ffa500; stroke-width: 1.5"/>
     <use xlink:href="#mf9a7001fd2" x="167.60878" y="259.782443" style="fill: #ffa500; stroke: #ffa500; stroke-width: 1.5"/>
     <use xlink:href="#mf9a7001fd2" x="169.588381" y="258.745128" style="fill: #ffa500; stroke: #ffa500; stroke-width: 1.5"/>
     <use xlink:href="#mf9a7001fd2" x="171.567982" y="257.798013" style="fill: #ffa500; stroke: #ffa500; stroke-width: 1.5"/>
     <use xlink:href="#mf9a7001fd2" x="173.547583" y="257.031302" style="fill: #ffa500; stroke: #ffa500; stroke-width: 1.5"/>
     <use xlink:href="#mf9a7001fd2" x="175.527184" y="254.86647" style="fill: #ffa500; stroke: #ffa500; stroke-width: 1.5"/>
     <use xlink:href="#mf9a7001fd2" x="177.506785" y="254.370362" style="fill: #ffa500; stroke: #ffa500; stroke-width: 1.5"/>
     <use xlink:href="#mf9a7001fd2" x="179.486386" y="254.18996" style="fill: #ffa500; stroke: #ffa500; stroke-width: 1.5"/>
     <use xlink:href="#mf9a7001fd2" x="181.465987" y="254.23506" style="fill: #ffa500; stroke: #ffa500; stroke-width: 1.5"/>
     <use xlink:href="#mf9a7001fd2" x="183.445588" y="254.686067" style="fill: #ffa500; stroke: #ffa500; stroke-width: 1.5"/>
     <use xlink:href="#mf9a7001fd2" x="185.425188" y="255.227275" style="fill: #ffa500; stroke: #ffa500; stroke-width: 1.5"/>
     <use xlink:href="#mf9a7001fd2" x="187.404789" y="255.948886" style="fill: #ffa500; stroke: #ffa500; stroke-width: 1.5"/>
     <use xlink:href="#mf9a7001fd2" x="189.38439" y="256.986201" style="fill: #ffa500; stroke: #ffa500; stroke-width: 1.5"/>
     <use xlink:href="#mf9a7001fd2" x="191.363991" y="257.888215" style="fill: #ffa500; stroke: #ffa500; stroke-width: 1.5"/>
     <use xlink:href="#mf9a7001fd2" x="193.343592" y="258.474523" style="fill: #ffa500; stroke: #ffa500; stroke-width: 1.5"/>
     <use xlink:href="#mf9a7001fd2" x="195.323193" y="258.970631" style="fill: #ffa500; stroke: #ffa500; stroke-width: 1.5"/>
     <use xlink:href="#mf9a7001fd2" x="197.302794" y="258.92553" style="fill: #ffa500; stroke: #ffa500; stroke-width: 1.5"/>
     <use xlink:href="#mf9a7001fd2" x="199.282395" y="257.527409" style="fill: #ffa500; stroke: #ffa500; stroke-width: 1.5"/>
     <use xlink:href="#mf9a7001fd2" x="201.261996" y="255.272376" style="fill: #ffa500; stroke: #ffa500; stroke-width: 1.5"/>
     <use xlink:href="#mf9a7001fd2" x="203.241596" y="249.995597" style="fill: #ffa500; stroke: #ffa500; stroke-width: 1.5"/>
     <use xlink:href="#mf9a7001fd2" x="205.221197" y="245.981638" style="fill: #ffa500; stroke: #ffa500; stroke-width: 1.5"/>
     <use xlink:href="#mf9a7001fd2" x="207.200798" y="241.42647" style="fill: #ffa500; stroke: #ffa500; stroke-width: 1.5"/>
     <use xlink:href="#mf9a7001fd2" x="209.180399" y="237.41251" style="fill: #ffa500; stroke: #ffa500; stroke-width: 1.5"/>
     <use xlink:href="#mf9a7001fd2" x="211.16" y="232.992644" style="fill: #ffa500; stroke: #ffa500; stroke-width: 1.5"/>
     <use xlink:href="#mf9a7001fd2" x="213.139601" y="229.159087" style="fill: #ffa500; stroke: #ffa500; stroke-width: 1.5"/>
     <use xlink:href="#mf9a7001fd2" x="215.119202" y="225.95694" style="fill: #ffa500; stroke: #ffa500; stroke-width: 1.5"/>
     <use xlink:href="#mf9a7001fd2" x="217.098803" y="223.070497" style="fill: #ffa500; stroke: #ffa500; stroke-width: 1.5"/>
     <use xlink:href="#mf9a7001fd2" x="219.078404" y="220.499758" style="fill: #ffa500; stroke: #ffa500; stroke-width: 1.5"/>
     <use xlink:href="#mf9a7001fd2" x="221.058004" y="214.59157" style="fill: #ffa500; stroke: #ffa500; stroke-width: 1.5"/>
     <use xlink:href="#mf9a7001fd2" x="223.037605" y="214.456268" style="fill: #ffa500; stroke: #ffa500; stroke-width: 1.5"/>
     <use xlink:href="#mf9a7001fd2" x="225.017206" y="215.358282" style="fill: #ffa500; stroke: #ffa500; stroke-width: 1.5"/>
     <use xlink:href="#mf9a7001fd2" x="226.996807" y="217.027007" style="fill: #ffa500; stroke: #ffa500; stroke-width: 1.5"/>
     <use xlink:href="#mf9a7001fd2" x="228.976408" y="220.048752" style="fill: #ffa500; stroke: #ffa500; stroke-width: 1.5"/>
     <use xlink:href="#mf9a7001fd2" x="230.956009" y="223.386201" style="fill: #ffa500; stroke: #ffa500; stroke-width: 1.5"/>
     <use xlink:href="#mf9a7001fd2" x="232.93561" y="227.941369" style="fill: #ffa500; stroke: #ffa500; stroke-width: 1.5"/>
     <use xlink:href="#mf9a7001fd2" x="234.915211" y="233.35345" style="fill: #ffa500; stroke: #ffa500; stroke-width: 1.5"/>
     <use xlink:href="#mf9a7001fd2" x="236.894812" y="237.818416" style="fill: #ffa500; stroke: #ffa500; stroke-width: 1.5"/>
     <use xlink:href="#mf9a7001fd2" x="238.874412" y="240.11855" style="fill: #ffa500; stroke: #ffa500; stroke-width: 1.5"/>
     <use xlink:href="#mf9a7001fd2" x="240.854013" y="240.298953" style="fill: #ffa500; stroke: #ffa500; stroke-width: 1.5"/>
     <use xlink:href="#mf9a7001fd2" x="242.833614" y="237.367409" style="fill: #ffa500; stroke: #ffa500; stroke-width: 1.5"/>
     <use xlink:href="#mf9a7001fd2" x="244.813215" y="231.143517" style="fill: #ffa500; stroke: #ffa500; stroke-width: 1.5"/>
     <use xlink:href="#mf9a7001fd2" x="246.792816" y="222.664591" style="fill: #ffa500; stroke: #ffa500; stroke-width: 1.5"/>
     <use xlink:href="#mf9a7001fd2" x="248.772417" y="213.554255" style="fill: #ffa500; stroke: #ffa500; stroke-width: 1.5"/>
     <use xlink:href="#mf9a7001fd2" x="250.752018" y="204.804725" style="fill: #ffa500; stroke: #ffa500; stroke-width: 1.5"/>
     <use xlink:href="#mf9a7001fd2" x="252.731619" y="195.694389" style="fill: #ffa500; stroke: #ffa500; stroke-width: 1.5"/>
     <use xlink:href="#mf9a7001fd2" x="254.71122" y="187.801772" style="fill: #ffa500; stroke: #ffa500; stroke-width: 1.5"/>
     <use xlink:href="#mf9a7001fd2" x="256.69082" y="179.954255" style="fill: #ffa500; stroke: #ffa500; stroke-width: 1.5"/>
     <use xlink:href="#mf9a7001fd2" x="258.670421" y="173.775463" style="fill: #ffa500; stroke: #ffa500; stroke-width: 1.5"/>
     <use xlink:href="#mf9a7001fd2" x="260.650022" y="167.777074" style="fill: #ffa500; stroke: #ffa500; stroke-width: 1.5"/>
     <use xlink:href="#mf9a7001fd2" x="262.629623" y="163.853315" style="fill: #ffa500; stroke: #ffa500; stroke-width: 1.5"/>
     <use xlink:href="#mf9a7001fd2" x="264.609224" y="161.192376" style="fill: #ffa500; stroke: #ffa500; stroke-width: 1.5"/>
     <use xlink:href="#mf9a7001fd2" x="266.588825" y="160.380564" style="fill: #ffa500; stroke: #ffa500; stroke-width: 1.5"/>
     <use xlink:href="#mf9a7001fd2" x="268.568426" y="161.237477" style="fill: #ffa500; stroke: #ffa500; stroke-width: 1.5"/>
     <use xlink:href="#mf9a7001fd2" x="270.548027" y="163.853315" style="fill: #ffa500; stroke: #ffa500; stroke-width: 1.5"/>
     <use xlink:href="#mf9a7001fd2" x="272.527627" y="168.679087" style="fill: #ffa500; stroke: #ffa500; stroke-width: 1.5"/>
     <use xlink:href="#mf9a7001fd2" x="274.507228" y="175.624591" style="fill: #ffa500; stroke: #ffa500; stroke-width: 1.5"/>
     <use xlink:href="#mf9a7001fd2" x="276.486829" y="184.780027" style="fill: #ffa500; stroke: #ffa500; stroke-width: 1.5"/>
     <use xlink:href="#mf9a7001fd2" x="278.46643" y="194.43157" style="fill: #ffa500; stroke: #ffa500; stroke-width: 1.5"/>
     <use xlink:href="#mf9a7001fd2" x="280.446031" y="205.210631" style="fill: #ffa500; stroke: #ffa500; stroke-width: 1.5"/>
     <use xlink:href="#mf9a7001fd2" x="282.425632" y="214.54647" style="fill: #ffa500; stroke: #ffa500; stroke-width: 1.5"/>
     <use xlink:href="#mf9a7001fd2" x="284.405233" y="219.507544" style="fill: #ffa500; stroke: #ffa500; stroke-width: 1.5"/>
     <use xlink:href="#mf9a7001fd2" x="286.384834" y="218.515329" style="fill: #ffa500; stroke: #ffa500; stroke-width: 1.5"/>
     <use xlink:href="#mf9a7001fd2" x="288.364435" y="212.065933" style="fill: #ffa500; stroke: #ffa500; stroke-width: 1.5"/>
     <use xlink:href="#mf9a7001fd2" x="290.344035" y="201.377074" style="fill: #ffa500; stroke: #ffa500; stroke-width: 1.5"/>
     <use xlink:href="#mf9a7001fd2" x="292.323636" y="188.884188" style="fill: #ffa500; stroke: #ffa500; stroke-width: 1.5"/>
     <use xlink:href="#mf9a7001fd2" x="294.303237" y="175.57949" style="fill: #ffa500; stroke: #ffa500; stroke-width: 1.5"/>
     <use xlink:href="#mf9a7001fd2" x="296.282838" y="162.094389" style="fill: #ffa500; stroke: #ffa500; stroke-width: 1.5"/>
     <use xlink:href="#mf9a7001fd2" x="298.262439" y="148.519087" style="fill: #ffa500; stroke: #ffa500; stroke-width: 1.5"/>
     <use xlink:href="#mf9a7001fd2" x="300.24204" y="136.341906" style="fill: #ffa500; stroke: #ffa500; stroke-width: 1.5"/>
     <use xlink:href="#mf9a7001fd2" x="302.221641" y="125.653047" style="fill: #ffa500; stroke: #ffa500; stroke-width: 1.5"/>
     <use xlink:href="#mf9a7001fd2" x="304.201242" y="116.227007" style="fill: #ffa500; stroke: #ffa500; stroke-width: 1.5"/>
     <use xlink:href="#mf9a7001fd2" x="306.180843" y="108.604993" style="fill: #ffa500; stroke: #ffa500; stroke-width: 1.5"/>
     <use xlink:href="#mf9a7001fd2" x="308.160443" y="103.328215" style="fill: #ffa500; stroke: #ffa500; stroke-width: 1.5"/>
     <use xlink:href="#mf9a7001fd2" x="310.140044" y="99.67506" style="fill: #ffa500; stroke: #ffa500; stroke-width: 1.5"/>
     <use xlink:href="#mf9a7001fd2" x="312.119645" y="98.547544" style="fill: #ffa500; stroke: #ffa500; stroke-width: 1.5"/>
     <use xlink:href="#mf9a7001fd2" x="314.099246" y="99.584859" style="fill: #ffa500; stroke: #ffa500; stroke-width: 1.5"/>
     <use xlink:href="#mf9a7001fd2" x="316.078847" y="103.598819" style="fill: #ffa500; stroke: #ffa500; stroke-width: 1.5"/>
     <use xlink:href="#mf9a7001fd2" x="318.058448" y="110.003114" style="fill: #ffa500; stroke: #ffa500; stroke-width: 1.5"/>
     <use xlink:href="#mf9a7001fd2" x="320.038049" y="120.421369" style="fill: #ffa500; stroke: #ffa500; stroke-width: 1.5"/>
     <use xlink:href="#mf9a7001fd2" x="322.01765" y="132.914255" style="fill: #ffa500; stroke: #ffa500; stroke-width: 1.5"/>
     <use xlink:href="#mf9a7001fd2" x="323.997251" y="147.34647" style="fill: #ffa500; stroke: #ffa500; stroke-width: 1.5"/>
     <use xlink:href="#mf9a7001fd2" x="325.976851" y="163.176805" style="fill: #ffa500; stroke: #ffa500; stroke-width: 1.5"/>
     <use xlink:href="#mf9a7001fd2" x="327.956452" y="177.473718" style="fill: #ffa500; stroke: #ffa500; stroke-width: 1.5"/>
     <use xlink:href="#mf9a7001fd2" x="329.936053" y="186.98996" style="fill: #ffa500; stroke: #ffa500; stroke-width: 1.5"/>
     <use xlink:href="#mf9a7001fd2" x="331.915654" y="189.921503" style="fill: #ffa500; stroke: #ffa500; stroke-width: 1.5"/>
     <use xlink:href="#mf9a7001fd2" x="333.895255" y="183.923114" style="fill: #ffa500; stroke: #ffa500; stroke-width: 1.5"/>
     <use xlink:href="#mf9a7001fd2" x="335.874856" y="173.504859" style="fill: #ffa500; stroke: #ffa500; stroke-width: 1.5"/>
     <use xlink:href="#mf9a7001fd2" x="337.854457" y="158.80204" style="fill: #ffa500; stroke: #ffa500; stroke-width: 1.5"/>
     <use xlink:href="#mf9a7001fd2" x="339.834058" y="143.512913" style="fill: #ffa500; stroke: #ffa500; stroke-width: 1.5"/>
     <use xlink:href="#mf9a7001fd2" x="341.813659" y="126.690362" style="fill: #ffa500; stroke: #ffa500; stroke-width: 1.5"/>
     <use xlink:href="#mf9a7001fd2" x="343.793259" y="110.499221" style="fill: #ffa500; stroke: #ffa500; stroke-width: 1.5"/>
     <use xlink:href="#mf9a7001fd2" x="345.77286" y="94.308081" style="fill: #ffa500; stroke: #ffa500; stroke-width: 1.5"/>
     <use xlink:href="#mf9a7001fd2" x="347.752461" y="79.785664" style="fill: #ffa500; stroke: #ffa500; stroke-width: 1.5"/>
     <use xlink:href="#mf9a7001fd2" x="349.732062" y="66.345664" style="fill: #ffa500; stroke: #ffa500; stroke-width: 1.5"/>
     <use xlink:href="#mf9a7001fd2" x="351.711663" y="55.070497" style="fill: #ffa500; stroke: #ffa500; stroke-width: 1.5"/>
     <use xlink:href="#mf9a7001fd2" x="353.691264" y="45.644456" style="fill: #ffa500; stroke: #ffa500; stroke-width: 1.5"/>
     <use xlink:href="#mf9a7001fd2" x="355.670865" y="39.285262" style="fill: #ffa500; stroke: #ffa500; stroke-width: 1.5"/>
     <use xlink:href="#mf9a7001fd2" x="357.650466" y="35.587007" style="fill: #ffa500; stroke: #ffa500; stroke-width: 1.5"/>
     <use xlink:href="#mf9a7001fd2" x="359.630067" y="35.136" style="fill: #ffa500; stroke: #ffa500; stroke-width: 1.5"/>
     <use xlink:href="#mf9a7001fd2" x="361.609667" y="37.706738" style="fill: #ffa500; stroke: #ffa500; stroke-width: 1.5"/>
     <use xlink:href="#mf9a7001fd2" x="363.589268" y="43.389423" style="fill: #ffa500; stroke: #ffa500; stroke-width: 1.5"/>
     <use xlink:href="#mf9a7001fd2" x="365.568869" y="53.31157" style="fill: #ffa500; stroke: #ffa500; stroke-width: 1.5"/>
     <use xlink:href="#mf9a7001fd2" x="367.54847" y="64.857342" style="fill: #ffa500; stroke: #ffa500; stroke-width: 1.5"/>
     <use xlink:href="#mf9a7001fd2" x="369.528071" y="81.183785" style="fill: #ffa500; stroke: #ffa500; stroke-width: 1.5"/>
     <use xlink:href="#mf9a7001fd2" x="371.507672" y="99.269154" style="fill: #ffa500; stroke: #ffa500; stroke-width: 1.5"/>
     <use xlink:href="#mf9a7001fd2" x="373.487273" y="116.903517" style="fill: #ffa500; stroke: #ffa500; stroke-width: 1.5"/>
    </g>
   </g>
   <g id="PathCollection_2">
    <defs>
     <path id="m2c7296f323" d="M 0 -5 
L -5 5 
L 5 5 
z
" style="stroke: #ff0000"/>
    </defs>
    <g clip-path="url(#pad2945bbe1)">
     <use xlink:href="#m2c7296f323" x="145.833171" y="269.569289" style="fill: #ff0000; stroke: #ff0000"/>
     <use xlink:href="#m2c7296f323" x="195.323193" y="258.970631" style="fill: #ff0000; stroke: #ff0000"/>
     <use xlink:href="#m2c7296f323" x="240.854013" y="240.298953" style="fill: #ff0000; stroke: #ff0000"/>
     <use xlink:href="#m2c7296f323" x="284.405233" y="219.507544" style="fill: #ff0000; stroke: #ff0000"/>
     <use xlink:href="#m2c7296f323" x="331.915654" y="189.921503" style="fill: #ff0000; stroke: #ff0000"/>
    </g>
   </g>
   <g id="PathCollection_3">
    <defs>
     <path id="m713896aca5" d="M -5 5 
L 5 5 
L 5 -5 
L -5 -5 
z
" style="stroke: #008000"/>
    </defs>
    <g clip-path="url(#pad2945bbe1)">
     <use xlink:href="#m713896aca5" x="179.486386" y="254.18996" style="fill: #008000; stroke: #008000"/>
     <use xlink:href="#m713896aca5" x="223.037605" y="214.456268" style="fill: #008000; stroke: #008000"/>
     <use xlink:href="#m713896aca5" x="266.588825" y="160.380564" style="fill: #008000; stroke: #008000"/>
     <use xlink:href="#m713896aca5" x="312.119645" y="98.547544" style="fill: #008000; stroke: #008000"/>
     <use xlink:href="#m713896aca5" x="359.630067" y="35.136" style="fill: #008000; stroke: #008000"/>
    </g>
   </g>
   <g id="matplotlib.axis_1">
    <g id="xtick_1">
     <g id="line2d_1">
      <defs>
       <path id="me48240be28" d="M 0 0 
L 0 3.5 
" style="stroke: #000000; stroke-width: 0.8"/>
      </defs>
      <g>
       <use xlink:href="#me48240be28" x="48.832727" y="289.152" style="stroke: #000000; stroke-width: 0.8"/>
      </g>
     </g>
     <g id="text_1">
      <!-- 0 -->
      <g transform="translate(46.332727 303.300437) scale(0.1 -0.1)">
       <defs>
        <path id="SimSun-30" d="M 1600 4225 
Q 1250 4225 1012 3687 
Q 775 3150 775 2250 
Q 775 1300 1012 775 
Q 1250 250 1600 250 
Q 1975 250 2187 775 
Q 2400 1300 2400 2250 
Q 2400 3150 2200 3687 
Q 2000 4225 1600 4225 
z
M 1600 50 
Q 1050 50 675 625 
Q 300 1200 300 2250 
Q 300 3225 662 3825 
Q 1025 4425 1600 4425 
Q 2150 4425 2512 3850 
Q 2875 3275 2875 2250 
Q 2875 1225 2512 637 
Q 2150 50 1600 50 
z
" transform="scale(0.015625)"/>
       </defs>
       <use xlink:href="#SimSun-30"/>
      </g>
     </g>
    </g>
    <g id="xtick_2">
     <g id="line2d_2">
      <g>
       <use xlink:href="#me48240be28" x="128.016763" y="289.152" style="stroke: #000000; stroke-width: 0.8"/>
      </g>
     </g>
     <g id="text_2">
      <!-- 20 -->
      <g transform="translate(123.016763 303.300437) scale(0.1 -0.1)">
       <defs>
        <path id="SimSun-32" d="M 2325 3325 
Q 2325 3775 2125 4012 
Q 1925 4250 1525 4250 
Q 1225 4250 1012 4087 
Q 800 3925 800 3675 
Q 800 3525 900 3425 
Q 975 3325 975 3225 
Q 975 3100 912 3037 
Q 850 2975 725 2975 
Q 575 2975 487 3062 
Q 400 3150 400 3350 
Q 400 3875 775 4150 
Q 1150 4425 1575 4425 
Q 2175 4425 2462 4125 
Q 2750 3825 2750 3375 
Q 2750 3075 2612 2775 
Q 2475 2475 2175 2200 
Q 1450 1500 1062 1062 
Q 675 625 600 475 
L 2075 475 
Q 2300 475 2450 650 
Q 2600 825 2650 1175 
L 2800 1175 
L 2650 100 
L 325 100 
L 325 425 
Q 450 650 737 1000 
Q 1025 1350 1500 1825 
Q 1925 2250 2125 2625 
Q 2325 3000 2325 3325 
z
" transform="scale(0.015625)"/>
       </defs>
       <use xlink:href="#SimSun-32"/>
       <use xlink:href="#SimSun-30" transform="translate(50 0)"/>
      </g>
     </g>
    </g>
    <g id="xtick_3">
     <g id="line2d_3">
      <g>
       <use xlink:href="#me48240be28" x="207.200798" y="289.152" style="stroke: #000000; stroke-width: 0.8"/>
      </g>
     </g>
     <g id="text_3">
      <!-- 40 -->
      <g transform="translate(202.200798 303.300437) scale(0.1 -0.1)">
       <defs>
        <path id="SimSun-34" d="M 2300 575 
Q 2300 400 2400 325 
Q 2500 250 2675 250 
L 2900 250 
L 2900 100 
L 1250 100 
L 1250 250 
L 1525 250 
Q 1725 250 1812 325 
Q 1900 400 1900 575 
L 1900 1400 
L 225 1400 
L 225 1525 
L 2050 4425 
L 2300 4425 
L 2300 1550 
L 2975 1550 
L 2975 1400 
L 2300 1400 
L 2300 575 
z
M 1875 3800 
L 450 1550 
L 1900 1550 
L 1900 3800 
L 1875 3800 
z
" transform="scale(0.015625)"/>
       </defs>
       <use xlink:href="#SimSun-34"/>
       <use xlink:href="#SimSun-30" transform="translate(50 0)"/>
      </g>
     </g>
    </g>
    <g id="xtick_4">
     <g id="line2d_4">
      <g>
       <use xlink:href="#me48240be28" x="286.384834" y="289.152" style="stroke: #000000; stroke-width: 0.8"/>
      </g>
     </g>
     <g id="text_4">
      <!-- 60 -->
      <g transform="translate(281.384834 303.300437) scale(0.1 -0.1)">
       <defs>
        <path id="SimSun-36" d="M 775 1800 
Q 775 1050 1037 637 
Q 1300 225 1675 225 
Q 2050 225 2250 500 
Q 2450 775 2450 1525 
Q 2450 2025 2237 2300 
Q 2025 2575 1725 2575 
Q 1450 2575 1212 2412 
Q 975 2250 775 1800 
z
M 1750 2825 
Q 2350 2825 2612 2425 
Q 2875 2025 2875 1525 
Q 2875 775 2512 412 
Q 2150 50 1675 50 
Q 1000 50 650 562 
Q 300 1075 300 2050 
Q 300 3200 725 3812 
Q 1150 4425 1875 4425 
Q 2225 4425 2437 4225 
Q 2650 4025 2650 3875 
Q 2650 3725 2587 3650 
Q 2525 3575 2375 3575 
Q 2250 3575 2187 3637 
Q 2125 3700 2125 3825 
Q 2125 3875 2150 3925 
Q 2150 3975 2150 4025 
Q 2150 4125 2075 4187 
Q 2000 4250 1800 4250 
Q 1375 4250 1075 3862 
Q 775 3475 775 2175 
Q 925 2500 1187 2662 
Q 1450 2825 1750 2825 
z
" transform="scale(0.015625)"/>
       </defs>
       <use xlink:href="#SimSun-36"/>
       <use xlink:href="#SimSun-30" transform="translate(50 0)"/>
      </g>
     </g>
    </g>
    <g id="xtick_5">
     <g id="line2d_5">
      <g>
       <use xlink:href="#me48240be28" x="365.568869" y="289.152" style="stroke: #000000; stroke-width: 0.8"/>
      </g>
     </g>
     <g id="text_5">
      <!-- 80 -->
      <g transform="translate(360.568869 303.300437) scale(0.1 -0.1)">
       <defs>
        <path id="SimSun-38" d="M 625 1125 
Q 625 725 887 475 
Q 1150 225 1550 225 
Q 2025 225 2237 475 
Q 2450 725 2450 1100 
Q 2450 1425 2150 1725 
Q 1850 2025 1250 2275 
Q 950 2075 787 1775 
Q 625 1475 625 1125 
z
M 2825 1175 
Q 2825 700 2475 375 
Q 2125 50 1550 50 
Q 1025 50 650 375 
Q 275 700 275 1125 
Q 275 1550 487 1850 
Q 700 2150 1100 2375 
Q 750 2550 562 2812 
Q 375 3075 375 3400 
Q 375 3825 700 4125 
Q 1025 4425 1600 4425 
Q 2125 4425 2450 4125 
Q 2775 3825 2775 3400 
Q 2775 3100 2587 2837 
Q 2400 2575 2000 2375 
Q 2425 2125 2625 1825 
Q 2825 1525 2825 1175 
z
M 2425 3375 
Q 2425 3725 2225 3987 
Q 2025 4250 1600 4250 
Q 1125 4250 925 4000 
Q 725 3750 725 3475 
Q 725 3200 1012 2937 
Q 1300 2675 1825 2475 
Q 2125 2625 2275 2850 
Q 2425 3075 2425 3375 
z
" transform="scale(0.015625)"/>
       </defs>
       <use xlink:href="#SimSun-38"/>
       <use xlink:href="#SimSun-30" transform="translate(50 0)"/>
      </g>
     </g>
    </g>
    <g id="text_6">
     <!-- $V_{G_2K}/V$ -->
     <g transform="translate(195.81 315.8895) scale(0.1 -0.1)">
      <defs>
       <path id="DejaVuSans-Oblique-56" d="M 1319 0 
L 500 4666 
L 1119 4666 
L 1797 653 
L 4063 4666 
L 4750 4666 
L 2053 0 
L 1319 0 
z
" transform="scale(0.015625)"/>
       <path id="DejaVuSans-Oblique-47" d="M 3494 697 
L 3738 1919 
L 2700 1919 
L 2797 2438 
L 4453 2438 
L 4050 384 
Q 3634 156 3143 32 
Q 2653 -91 2156 -91 
Q 1278 -91 783 396 
Q 288 884 288 1753 
Q 288 2475 589 3126 
Q 891 3778 1422 4213 
Q 1756 4484 2153 4617 
Q 2550 4750 3034 4750 
Q 3472 4750 3873 4639 
Q 4275 4528 4641 4306 
L 4513 3634 
Q 4231 3928 3853 4083 
Q 3475 4238 3047 4238 
Q 2550 4238 2172 4048 
Q 1794 3859 1497 3463 
Q 1244 3125 1098 2667 
Q 953 2209 953 1734 
Q 953 1081 1287 751 
Q 1622 422 2284 422 
Q 2616 422 2925 492 
Q 3234 563 3494 697 
z
" transform="scale(0.015625)"/>
       <path id="DejaVuSans-32" d="M 1228 531 
L 3431 531 
L 3431 0 
L 469 0 
L 469 531 
Q 828 903 1448 1529 
Q 2069 2156 2228 2338 
Q 2531 2678 2651 2914 
Q 2772 3150 2772 3378 
Q 2772 3750 2511 3984 
Q 2250 4219 1831 4219 
Q 1534 4219 1204 4116 
Q 875 4013 500 3803 
L 500 4441 
Q 881 4594 1212 4672 
Q 1544 4750 1819 4750 
Q 2544 4750 2975 4387 
Q 3406 4025 3406 3419 
Q 3406 3131 3298 2873 
Q 3191 2616 2906 2266 
Q 2828 2175 2409 1742 
Q 1991 1309 1228 531 
z
" transform="scale(0.015625)"/>
       <path id="DejaVuSans-Oblique-4b" d="M 1081 4666 
L 1716 4666 
L 1331 2700 
L 3781 4666 
L 4622 4666 
L 1850 2438 
L 3878 0 
L 3109 0 
L 1247 2272 
L 806 0 
L 172 0 
L 1081 4666 
z
" transform="scale(0.015625)"/>
       <path id="DejaVuSans-2f" d="M 1625 4666 
L 2156 4666 
L 531 -594 
L 0 -594 
L 1625 4666 
z
" transform="scale(0.015625)"/>
      </defs>
      <use xlink:href="#DejaVuSans-Oblique-56" transform="translate(0 0.09375)"/>
      <use xlink:href="#DejaVuSans-Oblique-47" transform="translate(68.408203 -16.3125) scale(0.7)"/>
      <use xlink:href="#DejaVuSans-32" transform="translate(122.651367 -27.796875) scale(0.49)"/>
      <use xlink:href="#DejaVuSans-Oblique-4b" transform="translate(155.740723 -16.3125) scale(0.7)"/>
      <use xlink:href="#DejaVuSans-2f" transform="translate(204.378418 0.09375)"/>
      <use xlink:href="#DejaVuSans-Oblique-56" transform="translate(238.069824 0.09375)"/>
     </g>
    </g>
   </g>
   <g id="matplotlib.axis_2">
    <g id="ytick_1">
     <g id="line2d_6">
      <defs>
       <path id="m2071eb07fb" d="M 0 0 
L -3.5 0 
" style="stroke: #000000; stroke-width: 0.8"/>
      </defs>
      <g>
       <use xlink:href="#m2071eb07fb" x="32.6" y="277.056" style="stroke: #000000; stroke-width: 0.8"/>
      </g>
     </g>
     <g id="text_7">
      <!-- 0 -->
      <g transform="translate(20.6 280.630219) scale(0.1 -0.1)">
       <use xlink:href="#SimSun-30"/>
      </g>
     </g>
    </g>
    <g id="ytick_2">
     <g id="line2d_7">
      <g>
       <use xlink:href="#m2071eb07fb" x="32.6" y="231.955329" style="stroke: #000000; stroke-width: 0.8"/>
      </g>
     </g>
     <g id="text_8">
      <!-- 1 -->
      <g transform="translate(20.6 235.529548) scale(0.1 -0.1)">
       <defs>
        <path id="SimSun-31" d="M 1825 4450 
L 1825 650 
Q 1825 450 1950 350 
Q 2075 250 2300 250 
L 2550 250 
L 2550 100 
L 725 100 
L 725 250 
L 950 250 
Q 1200 250 1312 350 
Q 1425 450 1425 650 
L 1425 3675 
Q 1425 3775 1362 3837 
Q 1300 3900 1175 3900 
L 725 3900 
L 725 4050 
L 950 4050 
Q 1250 4050 1437 4150 
Q 1625 4250 1725 4450 
L 1825 4450 
z
" transform="scale(0.015625)"/>
       </defs>
       <use xlink:href="#SimSun-31"/>
      </g>
     </g>
    </g>
    <g id="ytick_3">
     <g id="line2d_8">
      <g>
       <use xlink:href="#m2071eb07fb" x="32.6" y="186.854658" style="stroke: #000000; stroke-width: 0.8"/>
      </g>
     </g>
     <g id="text_9">
      <!-- 2 -->
      <g transform="translate(20.6 190.428876) scale(0.1 -0.1)">
       <use xlink:href="#SimSun-32"/>
      </g>
     </g>
    </g>
    <g id="ytick_4">
     <g id="line2d_9">
      <g>
       <use xlink:href="#m2071eb07fb" x="32.6" y="141.753987" style="stroke: #000000; stroke-width: 0.8"/>
      </g>
     </g>
     <g id="text_10">
      <!-- 3 -->
      <g transform="translate(20.6 145.328205) scale(0.1 -0.1)">
       <defs>
        <path id="SimSun-33" d="M 2800 1250 
Q 2800 775 2450 412 
Q 2100 50 1475 50 
Q 1025 50 700 300 
Q 375 550 375 875 
Q 375 1025 475 1137 
Q 575 1250 675 1250 
Q 825 1250 887 1137 
Q 950 1025 950 950 
Q 950 825 900 750 
Q 850 650 850 575 
Q 850 425 1037 325 
Q 1225 225 1450 225 
Q 1900 225 2125 487 
Q 2350 750 2350 1300 
Q 2350 1750 2112 2025 
Q 1875 2300 1225 2300 
L 1225 2475 
Q 1725 2475 1962 2712 
Q 2200 2950 2200 3375 
Q 2200 3725 2012 3987 
Q 1825 4250 1425 4250 
Q 1250 4250 1050 4162 
Q 850 4075 850 3875 
Q 850 3675 900 3625 
Q 950 3575 950 3500 
Q 950 3375 900 3300 
Q 850 3225 725 3225 
Q 625 3225 537 3300 
Q 450 3375 450 3575 
Q 450 3950 775 4187 
Q 1100 4425 1525 4425 
Q 2025 4425 2325 4112 
Q 2625 3800 2625 3450 
Q 2625 3075 2437 2812 
Q 2250 2550 1850 2425 
Q 2400 2225 2600 1900 
Q 2800 1575 2800 1250 
z
" transform="scale(0.015625)"/>
       </defs>
       <use xlink:href="#SimSun-33"/>
      </g>
     </g>
    </g>
    <g id="ytick_5">
     <g id="line2d_10">
      <g>
       <use xlink:href="#m2071eb07fb" x="32.6" y="96.653315" style="stroke: #000000; stroke-width: 0.8"/>
      </g>
     </g>
     <g id="text_11">
      <!-- 4 -->
      <g transform="translate(20.6 100.227534) scale(0.1 -0.1)">
       <use xlink:href="#SimSun-34"/>
      </g>
     </g>
    </g>
    <g id="ytick_6">
     <g id="line2d_11">
      <g>
       <use xlink:href="#m2071eb07fb" x="32.6" y="51.552644" style="stroke: #000000; stroke-width: 0.8"/>
      </g>
     </g>
     <g id="text_12">
      <!-- 5 -->
      <g transform="translate(20.6 55.126863) scale(0.1 -0.1)">
       <defs>
        <path id="SimSun-35" d="M 1725 2850 
Q 2200 2850 2500 2487 
Q 2800 2125 2800 1525 
Q 2800 850 2487 450 
Q 2175 50 1525 50 
Q 1075 50 725 312 
Q 375 575 375 950 
Q 375 1100 462 1212 
Q 550 1325 700 1325 
Q 850 1325 900 1225 
Q 950 1125 950 1050 
Q 950 900 875 825 
Q 800 725 800 625 
Q 800 425 1037 325 
Q 1275 225 1550 225 
Q 1950 225 2162 550 
Q 2375 875 2375 1475 
Q 2375 1975 2187 2287 
Q 2000 2600 1625 2600 
Q 1350 2600 1150 2500 
Q 950 2400 775 2075 
L 550 2100 
L 675 4375 
L 2725 4375 
L 2650 4000 
L 850 4000 
L 750 2350 
Q 1000 2700 1237 2775 
Q 1475 2850 1725 2850 
z
" transform="scale(0.015625)"/>
       </defs>
       <use xlink:href="#SimSun-35"/>
      </g>
     </g>
    </g>
    <g id="text_13">
     <!-- $I_A/\mu A$ -->
     <g transform="translate(14.5 168.396) rotate(-90) scale(0.1 -0.1)">
      <defs>
       <path id="DejaVuSans-Oblique-49" d="M 1081 4666 
L 1716 4666 
L 806 0 
L 172 0 
L 1081 4666 
z
" transform="scale(0.015625)"/>
       <path id="DejaVuSans-Oblique-41" d="M 2356 4666 
L 3072 4666 
L 3938 0 
L 3278 0 
L 3084 1197 
L 984 1197 
L 325 0 
L -341 0 
L 2356 4666 
z
M 2584 4044 
L 1275 1722 
L 2988 1722 
L 2584 4044 
z
" transform="scale(0.015625)"/>
       <path id="DejaVuSans-Oblique-3bc" d="M -84 -1331 
L 856 3500 
L 1434 3500 
L 1009 1322 
Q 997 1256 987 1175 
Q 978 1094 978 1013 
Q 978 722 1161 565 
Q 1344 409 1684 409 
Q 2147 409 2431 671 
Q 2716 934 2816 1459 
L 3213 3500 
L 3788 3500 
L 3266 809 
Q 3253 750 3248 706 
Q 3244 663 3244 628 
Q 3244 531 3283 486 
Q 3322 441 3406 441 
Q 3438 441 3492 456 
Q 3547 472 3647 513 
L 3559 50 
Q 3422 -19 3297 -55 
Q 3172 -91 3053 -91 
Q 2847 -91 2730 40 
Q 2613 172 2613 403 
Q 2438 153 2195 31 
Q 1953 -91 1625 -91 
Q 1334 -91 1117 43 
Q 900 178 831 397 
L 494 -1331 
L -84 -1331 
z
" transform="scale(0.015625)"/>
      </defs>
      <use xlink:href="#DejaVuSans-Oblique-49" transform="translate(0 0.09375)"/>
      <use xlink:href="#DejaVuSans-Oblique-41" transform="translate(29.492188 -16.3125) scale(0.7)"/>
      <use xlink:href="#DejaVuSans-2f" transform="translate(80.112305 0.09375)"/>
      <use xlink:href="#DejaVuSans-Oblique-3bc" transform="translate(113.803711 0.09375)"/>
      <use xlink:href="#DejaVuSans-Oblique-41" transform="translate(177.426758 0.09375)"/>
     </g>
    </g>
   </g>
   <g id="line2d_12">
    <path d="M 48.832727 277.056 
L 88.424745 277.010899 
L 90.404346 276.740295 
L 92.383947 276.334389 
L 104.261552 272.636134 
L 106.241153 272.185128 
L 108.220754 272.500832 
L 110.200355 272.004725 
L 112.179956 271.779221 
L 116.139157 270.922309 
L 120.098359 270.245799 
L 124.057561 269.749691 
L 129.996364 269.208483 
L 133.955565 269.163383 
L 143.85357 269.479087 
L 145.833171 269.569289 
L 149.792373 269.388886 
L 153.751574 268.396671 
L 157.710776 266.863248 
L 159.690377 265.961235 
L 163.649579 263.796403 
L 165.62918 260.864859 
L 169.588381 258.745128 
L 171.567982 257.798013 
L 173.547583 257.031302 
L 175.527184 254.86647 
L 177.506785 254.370362 
L 179.486386 254.18996 
L 181.465987 254.23506 
L 185.425188 255.227275 
L 187.404789 255.948886 
L 189.38439 256.986201 
L 191.363991 257.888215 
L 195.323193 258.970631 
L 197.302794 258.92553 
L 199.282395 257.527409 
L 201.261996 255.272376 
L 203.241596 249.995597 
L 205.221197 245.981638 
L 207.200798 241.42647 
L 209.180399 237.41251 
L 211.16 232.992644 
L 213.139601 229.159087 
L 215.119202 225.95694 
L 217.098803 223.070497 
L 219.078404 220.499758 
L 221.058004 214.59157 
L 223.037605 214.456268 
L 225.017206 215.358282 
L 226.996807 217.027007 
L 228.976408 220.048752 
L 230.956009 223.386201 
L 232.93561 227.941369 
L 234.915211 233.35345 
L 236.894812 237.818416 
L 238.874412 240.11855 
L 240.854013 240.298953 
L 242.833614 237.367409 
L 244.813215 231.143517 
L 246.792816 222.664591 
L 252.731619 195.694389 
L 256.69082 179.954255 
L 260.650022 167.777074 
L 262.629623 163.853315 
L 264.609224 161.192376 
L 266.588825 160.380564 
L 268.568426 161.237477 
L 270.548027 163.853315 
L 272.527627 168.679087 
L 274.507228 175.624591 
L 278.46643 194.43157 
L 280.446031 205.210631 
L 282.425632 214.54647 
L 284.405233 219.507544 
L 286.384834 218.515329 
L 288.364435 212.065933 
L 290.344035 201.377074 
L 292.323636 188.884188 
L 300.24204 136.341906 
L 302.221641 125.653047 
L 304.201242 116.227007 
L 306.180843 108.604993 
L 308.160443 103.328215 
L 310.140044 99.67506 
L 312.119645 98.547544 
L 314.099246 99.584859 
L 316.078847 103.598819 
L 318.058448 110.003114 
L 320.038049 120.421369 
L 322.01765 132.914255 
L 323.997251 147.34647 
L 325.976851 163.176805 
L 327.956452 177.473718 
L 329.936053 186.98996 
L 331.915654 189.921503 
L 333.895255 183.923114 
L 335.874856 173.504859 
L 339.834058 143.512913 
L 343.793259 110.499221 
L 345.77286 94.308081 
L 347.752461 79.785664 
L 349.732062 66.345664 
L 351.711663 55.070497 
L 353.691264 45.644456 
L 355.670865 39.285262 
L 357.650466 35.587007 
L 359.630067 35.136 
L 361.609667 37.706738 
L 363.589268 43.389423 
L 365.568869 53.31157 
L 367.54847 64.857342 
L 369.528071 81.183785 
L 373.487273 116.903517 
L 373.487273 116.903517 
" clip-path="url(#pad2945bbe1)" style="fill: none; stroke: #1f77b4; stroke-width: 1.5; stroke-linecap: square"/>
   </g>
   <g id="patch_3">
    <path d="M 32.6 289.152 
L 32.6 23.04 
" style="fill: none; stroke: #000000; stroke-width: 0.8; stroke-linejoin: miter; stroke-linecap: square"/>
   </g>
   <g id="patch_4">
    <path d="M 389.72 289.152 
L 389.72 23.04 
" style="fill: none; stroke: #000000; stroke-width: 0.8; stroke-linejoin: miter; stroke-linecap: square"/>
   </g>
   <g id="patch_5">
    <path d="M 32.6 289.152 
L 389.72 289.152 
" style="fill: none; stroke: #000000; stroke-width: 0.8; stroke-linejoin: miter; stroke-linecap: square"/>
   </g>
   <g id="patch_6">
    <path d="M 32.6 23.04 
L 389.72 23.04 
" style="fill: none; stroke: #000000; stroke-width: 0.8; stroke-linejoin: miter; stroke-linecap: square"/>
   </g>
   <g id="text_14">
    <!-- $I_A-V_{G_2K}$(灯丝电压-0.1V) -->
    <g transform="translate(141.68 17.04) scale(0.12 -0.12)">
     <defs>
      <path id="DejaVuSans-2212" d="M 678 2272 
L 4684 2272 
L 4684 1741 
L 678 1741 
L 678 2272 
z
" transform="scale(0.015625)"/>
      <path id="SimSun-28" d="M 2900 5025 
Q 2325 4425 2037 3737 
Q 1750 3050 1750 2300 
Q 1750 1525 2037 850 
Q 2325 175 2900 -425 
L 2775 -550 
Q 2075 75 1725 787 
Q 1375 1500 1375 2300 
Q 1375 3075 1725 3787 
Q 2075 4500 2775 5150 
L 2900 5025 
z
" transform="scale(0.015625)"/>
      <path id="SimSun-706f" d="M 1400 5175 
L 1950 4950 
L 1775 4750 
L 1775 3150 
Q 2225 3675 2400 4100 
L 2825 3750 
Q 2625 3675 2400 3500 
Q 2175 3300 1775 3000 
Q 1750 2025 1675 1550 
Q 2275 1225 2475 975 
Q 2675 725 2637 525 
Q 2600 325 2500 300 
Q 2400 275 2225 700 
Q 2025 1125 1650 1425 
Q 1400 250 400 -525 
L 375 -425 
Q 1100 400 1275 1162 
Q 1450 1925 1437 2887 
Q 1425 3850 1400 5175 
z
M 900 3625 
Q 900 3275 887 3012 
Q 875 2750 787 2600 
Q 700 2450 550 2400 
Q 400 2350 337 2437 
Q 275 2525 275 2550 
Q 275 2650 425 2775 
Q 625 2950 800 3625 
L 900 3625 
z
M 3050 75 
Q 3750 -25 3937 -12 
Q 4125 0 4125 300 
L 4125 4275 
L 3375 4275 
Q 3050 4275 2775 4200 
L 2550 4425 
L 5200 4425 
L 5550 4775 
L 6025 4275 
L 4500 4275 
L 4500 100 
Q 4500 -175 4350 -350 
Q 4200 -525 3900 -625 
Q 3700 -200 3025 -25 
L 3050 75 
z
" transform="scale(0.015625)"/>
      <path id="SimSun-4e1d" d="M 1000 2800 
Q 1325 2850 2100 2875 
Q 2350 3275 2600 3850 
L 3050 3500 
Q 2825 3375 2650 3100 
Q 2450 2825 1200 1250 
Q 1525 1275 3075 1500 
L 3100 1375 
Q 1200 975 1025 675 
L 700 1225 
Q 925 1250 1362 1812 
Q 1800 2375 2025 2750 
Q 1125 2600 900 2350 
L 600 2850 
Q 875 2850 1250 3650 
Q 1625 4450 1775 5075 
L 2275 4775 
Q 2050 4625 1675 3925 
Q 1275 3225 1000 2800 
z
M 300 75 
L 5125 75 
L 5525 475 
L 6075 -75 
L 1175 -75 
Q 800 -75 525 -150 
L 300 75 
z
M 4250 5100 
L 4750 4775 
Q 4500 4625 4150 4050 
Q 3800 3450 3425 2900 
Q 3650 2900 4550 2925 
Q 4850 3375 5100 3975 
L 5550 3575 
Q 5325 3475 5100 3150 
Q 4875 2825 3700 1250 
Q 5100 1375 5600 1450 
L 5625 1325 
Q 3775 1000 3550 725 
L 3250 1300 
Q 3425 1300 3612 1500 
Q 3800 1700 4500 2800 
Q 3375 2600 3275 2450 
L 3025 2950 
Q 3300 2950 3700 3737 
Q 4100 4525 4250 5100 
z
" transform="scale(0.015625)"/>
      <path id="SimSun-7535" d="M 2875 3900 
Q 2875 4625 2850 5225 
L 3425 4950 
L 3225 4775 
L 3225 3900 
L 4750 3900 
L 5000 4150 
L 5350 3800 
L 5125 3625 
Q 5125 1625 5150 1125 
L 4775 950 
L 4775 1250 
L 3225 1250 
L 3225 125 
Q 3225 -150 3525 -150 
L 5250 -150 
Q 5475 -125 5500 112 
Q 5525 350 5550 1075 
L 5675 1075 
Q 5675 450 5762 250 
Q 5850 50 6025 -75 
Q 5925 -275 5775 -362 
Q 5625 -450 5350 -450 
L 3400 -450 
Q 2875 -450 2875 50 
L 2875 1250 
L 1375 1250 
L 1375 900 
L 1000 725 
Q 1025 1575 1025 2475 
Q 1025 3375 1000 4125 
L 1400 3900 
L 2875 3900 
z
M 1375 3750 
L 1375 2675 
L 2875 2675 
L 2875 3750 
L 1375 3750 
z
M 3225 3750 
L 3225 2675 
L 4775 2675 
L 4775 3750 
L 3225 3750 
z
M 1375 2525 
L 1375 1400 
L 2875 1400 
L 2875 2525 
L 1375 2525 
z
M 3225 2525 
L 3225 1400 
L 4775 1400 
L 4775 2525 
L 3225 2525 
z
" transform="scale(0.015625)"/>
      <path id="SimSun-538b" d="M 1850 2550 
L 3300 2550 
L 3300 3675 
Q 3300 4050 3275 4325 
L 3850 4025 
L 3650 3850 
L 3650 2550 
L 4750 2550 
L 5075 2875 
L 5550 2400 
L 3650 2400 
L 3650 50 
L 5250 50 
L 5600 400 
L 6100 -100 
L 1925 -100 
Q 1600 -100 1325 -175 
L 1100 50 
L 3300 50 
L 3300 2400 
L 2675 2400 
Q 2350 2400 2075 2325 
L 1850 2550 
z
M 1150 4075 
Q 1150 4425 1125 4975 
L 1500 4725 
L 4975 4725 
L 5350 5100 
L 5875 4575 
L 1500 4575 
L 1500 2625 
Q 1525 1450 1237 762 
Q 950 75 350 -525 
L 275 -450 
Q 650 50 900 700 
Q 1150 1350 1150 2425 
L 1150 4075 
z
M 4125 1875 
L 4200 1925 
Q 4800 1525 5025 1300 
Q 5250 1075 5250 900 
Q 5250 800 5150 637 
Q 5050 475 5000 475 
Q 4925 475 4850 700 
Q 4725 1075 4125 1875 
z
" transform="scale(0.015625)"/>
      <path id="SimSun-2d" d="M 200 2225 
L 200 2450 
L 2975 2450 
L 2975 2225 
L 200 2225 
z
" transform="scale(0.015625)"/>
      <path id="SimSun-2e" d="M 800 25 
Q 650 25 537 125 
Q 425 225 425 400 
Q 425 575 537 675 
Q 650 775 800 775 
Q 950 775 1062 662 
Q 1175 550 1175 400 
Q 1175 225 1062 125 
Q 950 25 800 25 
z
" transform="scale(0.015625)"/>
      <path id="SimSun-56" d="M 2125 4225 
L 2125 4375 
L 3025 4375 
L 3025 4225 
L 2925 4225 
Q 2825 4225 2737 4150 
Q 2650 4075 2600 3875 
L 1575 100 
L 1425 100 
L 500 3875 
Q 475 4050 412 4137 
Q 350 4225 225 4225 
L 100 4225 
L 100 4375 
L 1175 4375 
L 1175 4225 
L 1075 4225 
Q 950 4225 912 4150 
Q 875 4075 900 3950 
L 1600 1025 
L 1650 1025 
L 2400 3875 
Q 2425 3975 2425 4025 
Q 2425 4100 2387 4162 
Q 2350 4225 2200 4225 
L 2125 4225 
z
M 825 4225 
L 825 4225 
z
M 425 4225 
L 425 4225 
z
M 2700 4225 
L 2700 4225 
z
M 2500 4225 
L 2500 4225 
z
" transform="scale(0.015625)"/>
      <path id="SimSun-29" d="M 275 5025 
L 400 5150 
Q 1100 4500 1450 3787 
Q 1800 3075 1800 2300 
Q 1800 1500 1450 787 
Q 1100 75 400 -550 
L 275 -425 
Q 850 175 1137 850 
Q 1425 1525 1425 2300 
Q 1425 3050 1137 3737 
Q 850 4425 275 5025 
z
" transform="scale(0.015625)"/>
     </defs>
     <use xlink:href="#DejaVuSans-Oblique-49" transform="translate(0 0.359375)"/>
     <use xlink:href="#DejaVuSans-Oblique-41" transform="translate(29.492188 -16.046875) scale(0.7)"/>
     <use xlink:href="#DejaVuSans-2212" transform="translate(99.594727 0.359375)"/>
     <use xlink:href="#DejaVuSans-Oblique-56" transform="translate(202.866211 0.359375)"/>
     <use xlink:href="#DejaVuSans-Oblique-47" transform="translate(271.274414 -16.046875) scale(0.7)"/>
     <use xlink:href="#DejaVuSans-32" transform="translate(325.517578 -27.53125) scale(0.49)"/>
     <use xlink:href="#DejaVuSans-Oblique-4b" transform="translate(358.606934 -16.046875) scale(0.7)"/>
     <use xlink:href="#SimSun-28" transform="translate(407.244629 0.359375)"/>
     <use xlink:href="#SimSun-706f" transform="translate(457.244629 0.359375)"/>
     <use xlink:href="#SimSun-4e1d" transform="translate(557.244629 0.359375)"/>
     <use xlink:href="#SimSun-7535" transform="translate(657.244629 0.359375)"/>
     <use xlink:href="#SimSun-538b" transform="translate(757.244629 0.359375)"/>
     <use xlink:href="#SimSun-2d" transform="translate(857.244629 0.359375)"/>
     <use xlink:href="#SimSun-30" transform="translate(907.244629 0.359375)"/>
     <use xlink:href="#SimSun-2e" transform="translate(957.244629 0.359375)"/>
     <use xlink:href="#SimSun-31" transform="translate(1007.244629 0.359375)"/>
     <use xlink:href="#SimSun-56" transform="translate(1057.244629 0.359375)"/>
     <use xlink:href="#SimSun-29" transform="translate(1107.244629 0.359375)"/>
    </g>
   </g>
  </g>
 </g>
 <defs>
  <clipPath id="pad2945bbe1">
   <rect x="32.6" y="23.04" width="357.12" height="266.112"/>
  </clipPath>
 </defs>
</svg>
